<svg version="1.2" xmlns="http://www.w3.org/2000/svg" viewBox="0 0 1552 1024" width="1552" height="1024"><defs><filter x="-50%" y="-50%" width="200%" height="200%" id="f1" ><feDropShadow dx="22.8972985962235" dy="14.307820134296533" stdDeviation="22.083333333333336" flood-color="#000000" flood-opacity=".6"/></filter></defs><style>.a{filter:url(#f1);fill:#fecc4b}.b{fill:#5d913e}.c{fill:#664300}.d{fill:#fefefe}</style><path class="a" d="m747.4 20.8q1.5-0.1 3.1-0.1c1 0 2-0.1 3.1-0.1 1.1 0 2.2 0 3.3 0 1.7 0 1.7 0 3.4 0 1.2 0 2.3 0 3.5-0.1q1.7 0 3.5 0c1.8 0 1.8 0 3.6 0.1 1.8 0 1.8 0 3.6 0 1.8-0.1 1.8-0.1 3.6-0.1 1.2 0 2.3 0 3.6 0q1.7 0 3.5 0c1.7 0 1.7 0 3.5 0q1.7 0 3.4 0c1.7 0.1 1.7 0.1 3.4 0.1 1.1 0 2.2 0 3.3 0.1q1.7 0 3.3 0.1c1.1 0 2.1 0.1 3.2 0.2q1.5 0.1 3 0.2 1.4 0.1 2.9 0.2 1.4 0.2 2.8 0.3 1.2 0.1 2.5 0.3c1.2 0.1 1.2 0.1 2.4 0.2 1.5 0.2 2.9 0.3 4.3 0.5q1.7 0.1 3.4 0.3 1.4 0.1 2.9 0.2 2.3 0.2 4.7 0.4c2.4 0.4 2.4 0.4 4.8 0.8 1.4 0.2 2.9 0.4 4.3 0.7 1.4 0.1 2.8 0.3 4.3 0.5q1.9 0.2 3.9 0.4 1.8 0.4 3.7 0.8c1.1 0.2 2.3 0.4 3.5 0.7q1.5 0.2 3.1 0.4c1.2 0.2 2.4 0.3 3.6 0.5q1.9 0.4 3.9 0.8c1.4 0.3 2.8 0.6 4.2 0.9 1.4 0.3 2.8 0.5 4.3 0.9 1.9 0.4 1.9 0.4 3.9 0.8 2.3 0.5 2.3 0.5 4.6 1q1.8 0.5 3.6 0.9c1.4 0.3 3 0.7 4.5 1 1.4 0.3 2.6 0.6 4.1 0.9 1.4 0.5 2.8 1 4.3 1.5q1.3 0.3 2.6 0.6c1 0.3 2.1 0.5 3.1 0.8 1.4 0.4 2.6 0.8 4 1.2 1.4 0.3 2.8 0.8 4.2 1.2 1.3 0.4 2.5 0.8 3.9 1.2q1.8 0.5 3.8 1.2 1.8 0.6 3.7 1.2c2 0.6 2 0.6 4 1.2 1.4 0.5 2.9 1.1 4.4 1.6q1.1 0.5 2.3 0.9 1.2 0.4 2.4 0.9 1.3 0.4 2.6 0.9c1.2 0.4 1.2 0.4 2.5 0.8 1.5 0.6 3 1.1 4.5 1.6q1.4 0.7 2.8 1.5c1.5 0.4 2.9 0.9 4.3 1.4q1.9 0.8 3.8 1.6c2 0.9 2 0.9 3.9 1.7q1.3 0.5 2.5 1.1c1.2 0.4 1.2 0.4 2.3 0.9 1.1 0.4 2.1 0.9 3.1 1.4 1 0.5 2 1 3.1 1.4 1.4 0.7 2.9 1.3 4.4 2 1.3 0.5 2.7 1.2 4 1.8q1.2 0.5 2.4 1 1.1 0.5 2.1 1c1.3 0.6 2.5 1.2 3.7 1.9 1.2 0.6 2.3 1.3 3.6 1.9 1.3 0.7 2.6 1.4 4 2 1.2 0.6 2.4 1.2 3.7 1.9q1.1 0.6 2.2 1.2 1.1 0.6 2 1.2c1.3 0.7 1.3 0.7 2.6 1.4 0.9 0.4 1.8 1 2.7 1.4q1.2 0.8 2.4 1.5 1.2 0.7 2.4 1.4c1.3 0.7 1.3 0.7 2.5 1.4 1 0.5 1.9 1 2.8 1.5 1.5 0.9 1.5 0.9 3 1.8 1.1 0.7 2.1 1.4 3.2 2 1.3 0.8 2.5 1.5 3.8 2.2 1.1 0.8 2.2 1.4 3.4 2.1 1.2 0.8 1.2 0.8 2.5 1.6q0.8 0.7 1.9 1.3 1.4 0.9 2.8 1.9c1.8 1.1 1.8 1.1 3.5 2.2 1 0.7 2.1 1.4 3.2 2.2 0.8 0.7 0.8 0.7 1.5 1.4 1.7 1 1.7 1 3.3 1.9 1.3 0.9 1.3 0.9 2.6 1.8q1.1 0.8 2.2 1.6 0.5 0.2 1 0.4 0 0.5 0 1 1.2 0.5 2.4 1c0.8 0.6 1.6 1.2 2.4 1.8 0.8 0.7 1.6 1.3 2.4 2q1.2 0.7 2.4 1.4 0 0.5 0 1 1.2 0.5 2.4 1 1 0.7 2 1.5 1.3 1.1 2.8 2.3 0.9 0.8 1.9 1.6c1.1 0.9 1.1 0.9 2.2 1.8q1 0.9 2.1 1.7 0.9 0.8 1.9 1.6 1.9 1.4 3.9 2.9 0 0.5 0 0.9 1.2 0.5 2.4 1c0.8 0.8 1.5 1.6 2.4 2.4 0.8 0.7 1.6 1.3 2.5 2 1.1 0.9 1.1 0.9 2.3 1.8q0 0.5 0 1 0.9 0.5 1.9 1 0.8 0.7 1.7 1.5 1.1 1 2.1 2 1 1 2 1.9c0.9 0.9 0.9 0.9 1.8 1.7 0.9 0.7 1.6 1.3 2.4 2q0 0.4 0 0.9 1 0.5 2 1 0.2 0.7 0.4 1.4 1 0.5 2 1 0.2 0.7 0.4 1.4 1 0.5 2 1 0.2 0.7 0.4 1.4 1 0.3 2 0.5c0.8 0.8 1.5 1.6 2.4 2.4q0.2 1 0.4 1.9 1 0.5 2 1 0.2 0.7 0.4 1.4 1 0.5 1.9 1 0.3 0.7 0.5 1.4 1 0.5 1.9 1 0.3 0.7 0.5 1.4 1 0.5 1.9 1 1 1 2 2.1c0.8 0.9 1.5 1.7 2.4 2.7q1.2 1.4 2.6 2.8 1 1.2 2.2 2.4 0 0.5 0 1 0.4 0 0.9 0c0.7 0.8 1.4 1.6 2.1 2.4 0.7 0.9 1.5 1.9 2.2 2.9 1 1.1 1.9 2.2 2.9 3.3q0 0.5 0 1 0.7 0.2 1.4 0.5c0.9 1 1.6 1.9 2.4 3 1 1.2 2 2.4 2.9 3.7 0.9 1 1.8 2.1 2.8 3.2 1.2 1.5 1.2 1.5 2.5 3 0.7 0.9 1.3 1.8 2.1 2.8 0.5 0.8 1.1 1.6 1.7 2.5 1 1.2 1.9 2.5 2.9 3.8q1 1.4 2.1 2.8 0.9 1.2 1.7 2.5 0 0.5 0 1 0.5 0 1 0 0.7 1.1 1.5 2.3c0.9 1.4 0.9 1.4 1.9 2.9 0.9 1.3 0.9 1.3 1.8 2.6q1 1.3 2 2.7c0.7 1.1 1.4 2.3 2.2 3.4 0.7 1.1 1.4 2.2 2.1 3.3 0.9 1.4 0.9 1.4 1.9 2.7q0.7 1 1.5 2.1 0.7 1.2 1.4 2.4c0.5 0.9 1.1 1.7 1.6 2.6 0.6 0.9 1.2 1.8 1.8 2.7 0.6 1.1 1.2 2.2 1.9 3.3q0.5 1.5 0.9 2.9 0.5 0 1 0 0.7 1.2 1.3 2.4c0.8 1.4 0.8 1.4 1.6 2.9q0.7 1.1 1.4 2.3 0.7 1.2 1.4 2.5c0.5 1 1.1 2 1.5 3 0.7 1.3 0.7 1.3 1.4 2.7 0.7 1 1.3 2 1.9 2.9 0.7 1.3 1.3 2.6 2 3.9 0.9 1.7 0.9 1.7 1.8 3.6q1 1.9 2 4c0.6 1.1 1.2 2.2 1.8 3.4 0.7 1.2 1.4 2.5 2 3.8 0.9 2 0.9 2 1.9 4 0.6 1.3 1.2 2.7 1.9 4.1q0.9 2 1.8 4c0.5 1.3 1.1 2.5 1.6 3.7q0.6 1.4 1.1 2.7 0.4 1.1 0.8 2.1c0.5 1 1 2 1.5 3.1q0.7 1.6 1.4 3.2 0.5 1.2 1 2.6 0.5 1.3 0.9 2.6c0.5 1.1 1 2.2 1.4 3.4 0.5 1.2 1 2.5 1.5 3.8q0.4 1.1 0.8 2.3 0.5 1.2 0.8 2.4 0.5 1.2 0.9 2.5 0.4 1.2 0.9 2.4 0.4 1.2 0.8 2.4 0.5 1.1 0.9 2.2 0.8 2.3 1.6 4.5 0.4 1.2 0.8 2.4 0.4 1.1 0.8 2.2 0.7 2.1 1.3 4.1c0.3 1.4 0.6 2.8 1 4.3 0.4 1.2 0.7 2.5 1.1 3.8 0.4 1.3 0.8 2.6 1.3 3.9 0.4 1.4 0.9 2.8 1.4 4.3 0.2 1 0.5 1.9 0.7 2.9q0.4 1.7 0.7 3.3c0.3 1 0.5 2 0.7 3.1 0.3 1 0.5 2.1 0.8 3.1 0.3 1.1 0.6 2.2 0.9 3.3 0.4 1.1 0.7 2.3 1 3.5 0.3 1.6 0.3 1.6 0.7 3.3 0.4 1.9 0.4 1.9 0.7 3.8 0.3 1.3 0.6 2.6 0.9 3.9 0.2 1.3 0.5 2.6 0.8 3.9 0.3 1.4 0.6 2.7 0.9 4.2 0.4 1.9 0.4 1.9 0.8 3.9q0.2 1.5 0.5 2.9 0.2 1.3 0.4 2.5c0.1 1.4 0.3 2.8 0.5 4.2q0.3 1.2 0.6 2.5 0.2 1.1 0.4 2.3 0.2 1.8 0.4 3.7c0.2 1.4 0.4 2.9 0.5 4.4 0.2 1.2 0.2 1.2 0.4 2.4q0.2 1.2 0.4 2.4c0.2 1.3 0.2 1.3 0.4 2.6q0.1 1.3 0.3 2.7 0.1 1.3 0.2 2.6 0.2 1.3 0.3 2.7 0.1 1.4 0.2 2.8c0.1 1.1 0.2 2.2 0.2 3.4 0.2 1.7 0.2 1.7 0.4 3.4q0.2 1.9 0.4 3.9c0.1 1.6 0.3 3 0.3 4.6q0.1 1.3 0.2 2.6 0.1 1.4 0.2 2.7 0 1.5 0.1 3.1c0 1 0 2 0 3.1 0 1.7 0 1.7 0.1 3.3q0 1.7 0 3.4c0 1.8 0 1.8 0 3.5q0 1.7 0 3.5c0 1.8 0 1.8 0 3.6q0 1.8 0 3.6c0 1.8 0 1.8 0 3.6 0 1.2 0 2.3 0 3.6q0 1.7 0 3.5c0 1.1 0 2.3 0 3.5q0 1.7 0 3.4c0 1.2 0 2.3 0 3.4-0.1 1.1-0.1 2.2-0.1 3.3q-0.1 1.7-0.1 3.3c-0.1 1.6-0.1 1.6-0.2 3.2q-0.2 1.5-0.2 3-0.1 1.4-0.3 2.9c-0.1 1.4-0.1 1.4-0.3 2.8q-0.1 1.2-0.2 2.5c-0.2 1.2-0.2 1.2-0.3 2.4-0.1 1.5-0.3 2.9-0.4 4.3q-0.2 1.7-0.3 3.4-0.1 1.4-0.3 2.9c-0.2 2.3-0.2 2.3-0.4 4.7-0.2 1.6-0.5 3.2-0.7 4.8-0.3 1.4-0.5 2.9-0.7 4.3-0.2 1.4-0.4 2.8-0.5 4.3q-0.3 1.9-0.5 3.9-0.4 1.8-0.7 3.7c-0.2 1.1-0.5 2.3-0.7 3.5q-0.3 1.5-0.5 3.1c-0.2 1.8-0.2 1.8-0.5 3.6q-0.4 1.9-0.8 3.9c-0.4 2.1-0.4 2.1-0.8 4.2-0.4 2.1-0.4 2.1-0.9 4.3-0.3 1.3-0.6 2.6-0.8 3.9-0.4 1.5-0.7 3-1.1 4.6q-0.4 1.7-0.9 3.6c-0.3 1.4-0.6 3-1 4.5-0.3 1.4-0.5 2.6-0.9 4.1-0.5 1.4-0.9 2.8-1.4 4.3-0.4 1.4-0.6 2.8-1 4.3-0.4 1.5-0.9 3-1.3 4.6q-0.4 1.3-0.8 2.6c-0.4 1.2-0.4 1.2-0.8 2.4-0.3 1.3-0.8 2.6-1.2 4-0.4 1.2-0.8 2.4-1.2 3.7-0.5 1.8-0.5 1.8-1.1 3.7-0.6 2-0.6 2-1.2 4-0.6 1.4-1.1 2.9-1.7 4.4-0.4 1.1-0.4 1.1-0.8 2.3q-0.5 1.2-0.9 2.4c-0.4 1.3-0.4 1.3-0.9 2.6q-0.4 1.2-0.9 2.5c-0.5 1.5-1 3-1.6 4.5q-0.7 1.4-1.4 2.8c-0.5 1.5-1 2.9-1.4 4.3q-0.9 1.9-1.7 3.8-0.8 2-1.7 3.9-0.5 1.3-1 2.5-0.4 1.2-0.9 2.3c-0.5 1.1-1 2.1-1.5 3.2-0.4 1-0.9 2-1.4 3-0.6 1.5-1.2 2.9-1.9 4.4-0.6 1.3-1.2 2.7-1.8 4.1q-0.5 1.1-1 2.3-0.5 1.1-1 2.2c-0.7 1.2-1.3 2.4-2 3.6-0.6 1.2-1.2 2.4-1.9 3.6-0.7 1.3-1.3 2.6-1.9 4-1 1.8-1 1.8-1.9 3.7-0.5 0.9-1 1.8-1.6 2.8q-0.6 1.2-1.3 2.4c-0.6 1.1-0.6 1.1-1.2 2.2-0.6 1.1-0.6 1.1-1.2 2.1q-0.7 1.2-1.4 2.3-0.7 1.3-1.5 2.5c-0.5 1-1 2.1-1.5 3.1q-0.7 1.4-1.3 2.7-0.5 0.7-1 1.4-0.5 0-1 0-0.4 1.5-0.9 2.9c-0.6 1.1-1.3 2.2-1.9 3.4-0.6 0.8-1.1 1.6-1.7 2.6-0.5 0.8-1.1 1.7-1.7 2.6q-0.8 1.2-1.5 2.3-0.7 1.1-1.4 2.1-0.9 1.4-1.9 2.8c-0.7 1.1-1.3 2.1-2 3.2-0.8 1.2-1.5 2.3-2.3 3.5q-1 1.4-2 2.8c-0.6 0.8-1.2 1.7-1.8 2.5-0.7 1-1.3 2-1.9 3-0.7 1.1-0.7 1.1-1.5 2.3q-0.5 0-1 0-0.4 1.2-0.9 2.4-0.9 1.1-1.9 2.3c-0.6 0.9-1.3 1.7-2 2.5-0.6 0.9-1.2 1.9-1.9 2.9q-1.1 1.5-2.3 3c-1.5 1.8-1.5 1.8-2.9 3.7q-0.9 1-1.8 2.1-0.8 1-1.7 2.1-0.9 1-1.7 2-0.7 1-1.6 1.9-1.4 1.9-2.8 3.9-0.5 0-1 0-0.5 1.2-1 2.4c-0.8 0.8-1.5 1.5-2.4 2.4-1 1.2-1 1.2-2 2.5q-0.9 1.1-1.8 2.3-0.5 0-0.9 0-0.5 0.9-1 1.9-0.8 0.8-1.6 1.7-0.9 1.1-2 2.1-0.9 0.9-1.9 2c-0.8 0.9-0.8 0.9-1.7 1.8-0.6 0.9-1.2 1.6-1.9 2.4q-0.5 0-1 0-0.5 1-0.9 2-0.8 0.2-1.5 0.4-0.5 1-0.9 2-0.8 0.1-1.5 0.4-0.4 1-0.9 2-0.7 0.2-1.5 0.4-0.2 1-0.4 2c-0.9 0.8-1.6 1.5-2.4 2.4q-1 0.2-2 0.4-0.4 1-0.9 2-0.7 0.2-1.5 0.4-0.4 1-0.9 1.9-0.7 0.3-1.5 0.5-0.4 1-0.9 1.9-0.7 0.3-1.5 0.5-0.4 1-0.9 1.9-1.1 1-2.1 2c-0.9 0.8-1.8 1.5-2.7 2.4q-1.5 1.2-2.9 2.6c-0.8 0.7-1.6 1.4-2.4 2.2q-0.5 0-0.9 0-0.1 0.4 0 0.9c-0.9 0.7-1.6 1.4-2.5 2.1-0.9 0.7-1.9 1.5-2.9 2.2-1 1-2.1 1.9-3.3 2.9q-0.5 0-0.9 0-0.3 0.7-0.5 1.4c-1 0.8-1.9 1.6-2.9 2.4q-1 0.7-1.9 1.4-1 0.8-2 1.5-0.9 0.8-2 1.6-0.9 0.8-2 1.7c-1.7 1.4-1.7 1.4-3.6 3q-1.3 0.9-2.4 1.9-1 0.7-2 1.4-1.4 0.9-2.8 1.9-1.5 1.1-3 2.3c-0.9 0.7-1.8 1.4-2.7 2q-0.6 0-1 0 0 0.5 0 1-1.2 0.7-2.4 1.4c-1 0.7-1.9 1.3-2.9 1.9-1.3 1-1.3 1-2.6 1.9q-1.3 1-2.7 2c-1.7 1.1-1.7 1.1-3.4 2.1-1.1 0.8-2.2 1.5-3.3 2.2-1.4 0.9-1.4 0.9-2.7 1.8-1.1 0.8-1.1 0.8-2.1 1.5q-1.2 0.8-2.4 1.5c-0.9 0.5-1.7 1.1-2.6 1.6-0.9 0.6-1.8 1.2-2.7 1.8-1.1 0.6-2.2 1.2-3.3 1.9-1 0.3-2 0.6-2.9 0.9q0 0.5 0 1-1.2 0.7-2.4 1.3c-1.4 0.8-1.4 0.8-2.9 1.6q-1.1 0.7-2.3 1.4-1.2 0.7-2.5 1.4c-1 0.5-2 1.1-3 1.5-0.9 0.5-1.8 0.9-2.7 1.4-1 0.7-2 1.3-2.9 1.9q-1.5 0.8-2.9 1.5c-1.7 0.8-1.7 0.8-3.5 1.7-1.4 0.7-2.7 1.4-4.2 2.1-1.3 0.7-2.6 1.5-4 2.2-1.3 0.7-2.7 1.4-4.1 2.1q-1.1 0.5-2.2 1c-1.1 0.5-1.1 0.5-2.2 1-2.1 0.9-2.1 0.9-4.2 1.9-1.3 0.5-2.6 1.2-3.9 1.8-1.1 0.5-2.2 1-3.3 1.5q-1.2 0.5-2.5 1-1.1 0.5-2.3 0.9c-1 0.5-2 1-3.1 1.5q-1.6 0.7-3.2 1.4c-1.3 0.5-1.3 0.5-2.7 1-1.2 0.5-1.2 0.5-2.5 0.9q-1.4 0.6-2.8 1.2c-1 0.4-2 0.8-3 1.2q-1.5 0.6-3.1 1.2c-1.2 0.4-2.4 0.8-3.6 1.2q-1.2 0.5-2.4 0.9-1.3 0.4-2.5 0.9-1.2 0.4-2.5 0.8-1.1 0.4-2.2 0.8-1.2 0.5-2.6 1-1.1 0.5-2.2 0.9c-1.6 0.5-1.6 0.5-3.2 0.9-1.7 0.5-1.7 0.5-3.5 1-1.2 0.4-2.4 0.8-3.7 1.2-2 0.6-2 0.6-4 1.2-1.2 0.4-1.2 0.4-2.4 0.7q-1.2 0.4-2.5 0.8-1.2 0.4-2.4 0.8-1.1 0.2-2.3 0.6c-1.1 0.3-2.2 0.5-3.3 0.8q-1.5 0.3-2.9 0.6-1.4 0.4-2.8 0.7c-1.5 0.4-1.5 0.4-3 0.8-1.1 0.3-2.3 0.6-3.5 0.9-1.2 0.4-2.4 0.7-3.7 1-1.1 0.2-2.2 0.4-3.3 0.7-1.3 0.2-2.5 0.5-3.8 0.7-1.3 0.3-2.6 0.6-4 0.9-1.3 0.3-2.6 0.5-4 0.9-1.3 0.3-2.6 0.5-4 0.8q-1.9 0.4-3.9 0.8c-1.2 0.2-2.4 0.3-3.6 0.5-1 0.2-2 0.3-3.1 0.5-1.2 0.2-2.5 0.4-3.8 0.6-2.1 0.4-2.1 0.4-4.3 0.8q-1.4 0.2-2.9 0.4c-1 0.1-2 0.2-3 0.4-1.5 0.1-1.5 0.1-3 0.3q-1.3 0.2-2.6 0.3c-1 0.2-2.1 0.4-3.2 0.6-1 0.1-2 0.2-3.1 0.4q-1.1 0.1-2.3 0.2-1.4 0.1-2.8 0.2-1.4 0.2-2.9 0.3c-1.7 0.1-1.7 0.1-3.5 0.2-1.1 0.1-2.3 0.3-3.4 0.4q-2 0.2-3.9 0.4c-1.6 0.1-3.1 0.3-4.6 0.3q-1.3 0.1-2.6 0.2-1.4 0.1-2.7 0.2-1.5 0-3.1 0.1c-1 0-2 0-3.1 0-1.7 0-1.7 0-3.3 0.1q-1.7 0-3.4 0c-1.2 0-2.3 0-3.5 0q-1.7 0-3.5 0-1.8 0-3.6 0-1.8 0-3.6 0c-1.8 0-1.8 0-3.6 0-1.2 0-2.3 0-3.6 0q-1.7 0-3.5 0c-1.1 0-2.3 0-3.5 0q-1.7 0-3.4 0c-1.2 0-2.3 0-3.4 0-1.1-0.1-2.2-0.1-3.3-0.1q-1.7-0.1-3.3-0.1c-1.1-0.1-2.1-0.2-3.2-0.3q-1.5-0.1-3-0.1-1.4-0.1-2.9-0.3c-1.4-0.1-1.4-0.1-2.8-0.3q-1.2-0.1-2.5-0.3c-1.2-0.1-1.2-0.1-2.4-0.2-1.5-0.1-2.9-0.3-4.3-0.4q-1.7-0.2-3.4-0.4-1.4 0-2.9-0.2-2.3-0.2-4.7-0.4c-1.6-0.2-3.2-0.5-4.8-0.7-1.4-0.3-2.9-0.5-4.3-0.7-1.4-0.2-2.8-0.4-4.2-0.5-1.3-0.2-2.7-0.3-4-0.5-1.3-0.2-2.6-0.5-4-0.7-1.2-0.3-2.4-0.5-3.7-0.8q-1.4-0.2-2.9-0.4c-1.1-0.2-2.2-0.3-3.3-0.5-1.1-0.2-2.2-0.5-3.3-0.6-1.1-0.3-2.2-0.5-3.4-0.8-1.8-0.4-1.8-0.4-3.7-0.7-1.1-0.3-2.3-0.5-3.5-0.8q-1.4-0.3-2.9-0.7-1.4-0.2-2.7-0.5-1.3-0.3-2.6-0.6-1.1-0.3-2.4-0.6-1.2-0.2-2.4-0.5-1.1-0.2-2.3-0.5-1.8-0.4-3.9-0.9c-1.4-0.5-2.8-0.9-4.3-1.4-1.4-0.4-2.8-0.7-4.3-1-1.2-0.4-1.2-0.4-2.5-0.7q-1.2-0.3-2.5-0.8c-1.2-0.3-1.2-0.3-2.4-0.7-1.1-0.3-1.1-0.3-2.2-0.7q-1.2-0.5-2.4-1-1.3-0.3-2.6-0.6c-1.6-0.4-1.6-0.4-3.2-0.8-1.1-0.3-2.2-0.7-3.3-1.1q-1.7-0.5-3.5-1.2c-1.2-0.4-2.4-0.9-3.7-1.3-1.6-0.6-1.6-0.6-3.4-1.2-1.4-0.5-2.8-1.1-4.3-1.6-1.1-0.4-2.2-0.8-3.3-1.3-1.6-0.5-1.6-0.5-3.2-1.2-1.5-0.5-1.5-0.5-3.1-1.2-1.2-0.5-2.4-0.9-3.7-1.5-1.1-0.4-2.3-0.9-3.5-1.3-1.2-0.5-1.2-0.5-2.5-1.1q-1.1-0.4-2.3-0.9c-1.3-0.5-1.3-0.5-2.7-1.1-1.5-0.6-1.5-0.6-3-1.3q-1.4-0.6-2.9-1.3-1.6-0.8-3.3-1.5c-1.1-0.5-2.2-1-3.2-1.4-1.6-0.8-1.6-0.8-3.3-1.5-1.1-0.4-2.2-1-3.4-1.5-1.5-0.7-1.5-0.7-3.1-1.4-1.3-0.7-2.6-1.3-3.9-2-1.7-0.9-1.7-0.9-3.3-1.8-1.3-0.7-2.6-1.3-4-2-1.2-0.6-2.4-1.2-3.7-1.9-0.9-0.5-1.8-1-2.8-1.5q-1.2-0.7-2.4-1.3c-1.1-0.6-1.1-0.6-2.2-1.2-1.1-0.6-1.1-0.6-2.1-1.2q-1.2-0.7-2.3-1.4-1.3-0.8-2.5-1.5c-1-0.5-2.1-1-3.1-1.6-1.4-0.6-1.4-0.6-2.7-1.3q-0.7-0.5-1.4-1 0-0.4 0-0.9c-1-0.3-2-0.6-2.9-1-1.1-0.6-2.2-1.2-3.4-1.9-0.8-0.5-1.6-1-2.6-1.6-0.8-0.6-1.7-1.2-2.6-1.7q-1.2-0.8-2.3-1.6-1.1-0.7-2.1-1.3-1.4-0.9-2.8-1.9c-1.1-0.7-2.1-1.4-3.2-2.1-1.2-0.7-2.3-1.5-3.5-2.3q-1.4-0.9-2.8-1.9c-0.8-0.6-1.7-1.3-2.5-1.9-1-0.6-2-1.2-3-1.9-1.1-0.7-1.1-0.7-2.3-1.4q0-0.5 0-1-1.2-0.5-2.4-1c-1.1-0.9-1.1-0.9-2.3-1.8-0.9-0.7-1.7-1.3-2.5-2-0.9-0.6-1.9-1.3-2.9-1.9-0.9-0.7-1.9-1.5-2.9-2.2-1.1-0.9-2.1-1.8-3.3-2.6-1-0.9-2.1-1.7-3.1-2.7-1-0.8-2.1-1.7-3.1-2.6q-1.7-1.3-3.5-2.7c-0.9-0.6-1.9-1.4-2.8-2.1q0-0.5 0-0.9-1.2-0.5-2.4-1c-0.7-0.8-1.5-1.6-2.4-2.4-1.2-1-1.2-1-2.5-2q-1.1-0.9-2.3-1.8 0-0.5 0-1-0.9-0.5-1.9-1c-0.8-0.8-0.8-0.8-1.7-1.5q-1.1-1-2.1-2-1-1-2-1.9c-0.9-0.9-0.9-0.9-1.8-1.7-0.8-0.7-1.6-1.3-2.4-2q0-0.4 0-0.9-1-0.5-2-1-0.2-0.7-0.4-1.4-1-0.5-2-1-0.2-0.7-0.4-1.4-1-0.5-2-1-0.2-0.7-0.4-1.4-1-0.3-2-0.5c-0.7-0.8-1.5-1.6-2.4-2.4q-0.2-1-0.4-1.9-1-0.5-2-1-0.2-0.7-0.4-1.4-1-0.5-1.9-1-0.3-0.7-0.5-1.4-1-0.5-1.9-1-0.3-0.7-0.5-1.4-1-0.5-1.9-1-1-1-2-2.1c-0.8-0.9-1.5-1.7-2.4-2.7-1.3-1.4-1.3-1.4-2.6-2.8-0.7-0.9-1.4-1.6-2.2-2.4q0-0.5 0-1-0.4 0-0.9 0c-0.7-0.8-1.4-1.6-2.1-2.4-0.7-0.9-1.5-1.9-2.2-2.9-1.5-1.6-1.5-1.6-2.9-3.3q0-0.5 0-1-0.7-0.2-1.4-0.5c-0.8-1-1.6-1.9-2.4-2.9q-1.5-1.9-2.9-3.8c-0.9-1-1.8-2.1-2.8-3.2-0.8-1-1.6-2-2.5-3q-1-1.4-2-2.7c-0.7-1-0.7-1-1.3-2.1q0-0.5 0-1-0.8-0.2-1.5-0.4-0.7-1.2-1.4-2.4c-0.7-1-1.5-2-2.3-3-0.7-0.9-1.3-1.8-2-2.8q0-0.5 0-1-0.5 0-1 0-0.8-1.2-1.6-2.4c-0.6-1-1.2-1.9-1.8-2.8q-0.9-1.2-1.9-2.4-0.7-1.2-1.4-2.4-0.8-1.2-1.6-2.4-0.9-1.2-1.8-2.4c-0.9-1.5-0.9-1.5-1.9-2.9-0.7-1.1-0.7-1.1-1.5-2.2q-0.6-1-1.4-2.1-0.7-1.2-1.4-2.4c-0.5-0.9-1.1-1.7-1.6-2.6-0.9-1.3-0.9-1.3-1.8-2.7-0.6-1.1-1.2-2.2-1.9-3.3-1.1-2-1.1-2-2.3-4q-0.7-1.1-1.3-2.2-0.6-1-1.2-2-0.7-1.2-1.5-2.5-0.7-1.1-1.3-2.3-0.9-1.7-1.8-3.5c-0.6-1.1-1.1-2.1-1.6-3.2q-0.7-1-1.4-1.9c-0.7-1.3-1.3-2.6-2-3.9-0.9-1.7-0.9-1.7-1.8-3.6q-1-1.9-2-4c-0.6-1.2-1.2-2.4-1.9-3.6-0.6-1.2-1.3-2.4-1.9-3.6-1-2.2-1-2.2-2-4.3-0.9-2.2-0.9-2.2-1.9-4.3-0.5-1.3-1.2-2.6-1.8-3.9-0.5-1.1-1-2.2-1.5-3.3q-0.5-1.2-1-2.5-0.5-1.1-0.9-2.3c-0.5-1-1-2-1.5-3.1q-0.7-1.6-1.4-3.2-0.5-1.3-1-2.7-0.5-1.2-0.9-2.5-0.6-1.4-1.2-2.8c-0.4-1-0.8-2-1.2-3q-0.6-1.5-1.2-3.1c-0.4-1.2-0.8-2.4-1.2-3.6q-0.5-1.2-0.9-2.4-0.4-1.3-0.9-2.5-0.4-1.2-0.8-2.5-0.4-1.1-0.8-2.2-0.5-1.2-1-2.6-0.5-1.1-0.9-2.2c-0.3-1.1-0.6-2.1-0.9-3.2-0.4-1.2-0.7-2.3-1-3.5-0.4-1.2-0.8-2.4-1.2-3.7-0.4-1.3-0.8-2.6-1.2-4-0.4-1.2-0.4-1.2-0.7-2.4q-0.4-1.2-0.8-2.5-0.4-1.2-0.8-2.5c-0.3-1.1-0.3-1.1-0.6-2.2q-0.4-1.4-0.8-2.8-0.3-1.4-0.6-2.9c-0.4-1.5-0.8-3-1.1-4.5q-0.3-1.3-0.6-2.7-0.4-1.4-0.7-2.9c-0.3-1.1-0.6-2.2-0.9-3.4-0.2-1.2-0.5-2.4-0.8-3.6-0.4-1.9-0.4-1.9-0.9-3.8q-0.4-1.7-0.8-3.6-0.3-1.6-0.7-3.3c-0.3-1.6-0.3-1.6-0.6-3.2q-0.3-1.4-0.6-2.9-0.3-1.3-0.5-2.6c-0.2-1.2-0.3-2.4-0.5-3.6q-0.2-1.5-0.5-3.1c-0.2-1.3-0.4-2.6-0.7-4-0.2-1.4-0.5-2.7-0.7-4.1-0.1-1.3-0.3-2.7-0.5-4-0.1-1.4-0.3-2.7-0.4-4.2-0.3-1.5-0.5-3-0.8-4.6q-0.2-1.2-0.4-2.4-0.1-1.3-0.3-2.6-0.1-1.2-0.2-2.5-0.2-1.4-0.3-2.7-0.1-1.4-0.2-2.9c-0.1-1.1-0.2-2.2-0.2-3.4-0.1-1.1-0.3-2.2-0.4-3.4q-0.2-1.9-0.4-3.9c-0.1-1.6-0.3-3-0.3-4.6q-0.1-1.3-0.2-2.6c-0.1-1.4-0.1-1.4-0.2-2.7q0-1.5-0.1-3.1c0-1 0-2 0-3.1 0-1.1-0.1-2.2-0.1-3.3q0-1.7 0-3.4c0-1.2 0-2.3 0-3.5q0-1.7 0-3.5 0-1.8 0-3.6 0-1.8 0-3.6c0-1.2 0-2.4 0-3.6 0-1.2 0-2.3 0-3.6 0-1.7 0-1.7 0-3.5 0-1.1 0-2.3 0-3.5 0-1.7 0-1.7 0-3.4 0-1.2 0-2.3 0-3.4 0.1-1.7 0.1-1.7 0.1-3.3q0.1-1.7 0.1-3.3c0.1-1.1 0.2-2.1 0.2-3.2q0.2-1.5 0.2-3 0.1-1.4 0.3-2.9 0.1-1.4 0.3-2.8 0.1-1.2 0.2-2.5 0.2-1.2 0.3-2.4c0.1-1.5 0.3-2.9 0.4-4.3q0.2-1.7 0.3-3.4 0.1-1.4 0.3-2.9 0.2-2.3 0.4-4.7c0.2-1.6 0.5-3.2 0.7-4.8 0.3-1.4 0.5-2.9 0.7-4.3 0.2-1.4 0.4-2.8 0.5-4.2 0.2-1.3 0.3-2.7 0.5-4 0.2-1.3 0.5-2.6 0.7-4 0.2-1.2 0.5-2.4 0.7-3.7q0.3-1.4 0.5-2.9c0.2-1.1 0.3-2.2 0.5-3.3 0.2-1.1 0.4-2.2 0.6-3.3 0.2-1.1 0.5-2.2 0.7-3.4 0.4-1.8 0.4-1.8 0.8-3.7 0.2-1.1 0.5-2.3 0.8-3.5q0.3-1.4 0.6-2.9 0.3-1.4 0.6-2.7 0.3-1.3 0.6-2.6 0.3-1.1 0.6-2.4 0.2-1.2 0.5-2.4 0.2-1.1 0.5-2.3c0.4-1.9 0.4-1.9 0.9-3.9 0.5-1.4 0.9-2.8 1.4-4.3 0.4-1.4 0.6-2.8 1-4.3q0.3-1.2 0.6-2.5 0.4-1.2 0.8-2.5c0.4-1.2 0.4-1.2 0.8-2.4q0.3-1.1 0.7-2.2c0.4-1.2 0.4-1.2 0.9-2.4q0.3-1.3 0.6-2.6c0.3-1 0.6-2.1 0.9-3.2 0.5-1.6 0.5-1.6 1.1-3.3q0.5-1.7 1.2-3.5c0.4-1.2 0.8-2.4 1.2-3.7 0.6-1.6 0.6-1.6 1.2-3.4 0.6-1.4 1.1-2.8 1.6-4.3 0.5-1.1 0.9-2.2 1.3-3.3 0.6-1.6 0.6-1.6 1.2-3.2 0.6-1.5 0.6-1.5 1.2-3.1 0.7-1.8 0.7-1.8 1.5-3.7 0.4-1.1 0.9-2.3 1.4-3.5q0.5-1.2 1-2.5c0.4-1.1 0.4-1.1 0.9-2.3q0.6-1.3 1.2-2.7 0.6-1.5 1.2-3c0.5-1.1 1-2.1 1.5-3.2 0.7-1.5 0.7-1.5 1.4-3 0.6-1.5 1.2-2.9 1.9-4.4 0.6-1.3 1.2-2.7 1.8-4.1 0.5-1.1 0.5-1.1 1-2.3q0.5-1.1 1-2.2c0.7-1.2 1.3-2.4 2-3.6 0.6-1.2 1.2-2.4 1.9-3.6 0.7-1.3 1.3-2.6 2-4 0.9-1.8 0.9-1.8 1.8-3.7q0.6-1.1 1.3-2.3 0.5-1 1.1-2 0.7-1.3 1.4-2.6c0.5-0.9 1-1.7 1.5-2.6q0.8-1.3 1.5-2.6 0.7-1.1 1.4-2.2 0.7-1.5 1.4-2.9 0.7-1.2 1.3-2.3 0.8-1.3 1.6-2.5 0.8-1.1 1.5-2.3 0.7-1 1.4-2 0.7-1.5 1.4-2.9 0.6-0.9 1.2-1.9 0.9-1.2 1.7-2.4c0.7-1.3 1.5-2.6 2.2-3.9 0.7-1.1 1.4-2.2 2.1-3.3q0.5 0 1 0 0.4-1.2 0.9-2.4 0.6-0.9 1.2-1.8 0.8-1.3 1.7-2.5c0.7-1 0.7-1 1.3-1.9q0.7-1.1 1.4-2.1c0.8-1.2 1.7-2.5 2.6-3.7q0.7-1.2 1.4-2.4 0.5 0 1 0 0.4-1.2 0.9-2.4c0.6-0.8 1.3-1.6 1.9-2.4 0.7-0.8 1.3-1.6 2-2.4q0.7-1.2 1.4-2.4 0.5 0 1 0 0.4-1.2 0.9-2.4c0.9-1.1 1.8-2.3 2.8-3.5q0.8-1 1.7-2 0.8-1.1 1.7-2.2 0.9-1 1.8-2.1 0.8-1 1.7-2.1c1.4-1.7 1.4-1.7 2.8-3.4q0.5-0.7 0.9-1.5 0.5 0 1 0 0.5-1.2 1-2.4 1.1-1.1 2.4-2.4c0.6-0.7 1.2-1.5 1.9-2.4q0.9-1.1 1.9-2.4 1.2-1.1 2.4-2.4 0.8-0.8 1.6-1.7c0.9-0.9 0.9-0.9 1.8-1.9q0.9-0.9 1.7-1.8 0.8-0.9 1.6-1.7c0.6-0.8 1.2-1.6 1.9-2.4q0.5 0 1 0 0.5-1 0.9-2 0.8-0.2 1.5-0.4 0.5-1 0.9-2 0.8-0.2 1.5-0.4 0.4-1 0.9-2 0.7-0.2 1.5-0.4 0.4-1.2 0.9-2.4 1.5-1.2 2.9-2.4 0.5 0 1 0 0.4-1 0.9-2 0.7-0.2 1.5-0.4 0.4-1 0.9-1.9 0.7-0.3 1.5-0.5 0.4-1 0.9-1.9 0.7-0.3 1.5-0.5 0.4-1 0.9-1.9 1.1-1 2.2-2.1c1.3-1.1 1.3-1.1 2.6-2.3 0.8-0.7 1.6-1.4 2.5-2.2 0.7-0.7 1.5-1.4 2.3-2.1q1-0.8 2-1.7 0.9-0.8 1.8-1.6 1.1-0.9 2.3-1.8 1-0.8 2.1-1.6 0.9-0.9 1.9-1.9 0.5 0 0.9 0 0.3-0.7 0.5-1.4c1-0.8 1.9-1.6 2.9-2.4q0.9-0.7 1.9-1.4 0.9-0.8 1.9-1.5 1-0.8 2-1.6 1-0.9 2.1-1.7c1.2-1 2.4-1.9 3.6-3 1.1-0.8 2.2-1.5 3.4-2.3q0.4 0 0.9 0 0.3-0.8 0.5-1.5 1.2-0.7 2.4-1.4c1.5-1.1 1.5-1.1 3-2.3 0.9-0.7 1.8-1.3 2.7-2q0.5 0 1 0 0-0.5 0-1 1.2-0.7 2.3-1.5c1-0.6 2-1.2 3-1.9 1.3-0.9 1.3-0.9 2.6-1.9 1.3-0.9 1.3-0.9 2.7-1.9 1.4-1 1.4-1 2.9-1.9q1.1-0.7 2.3-1.4 0.5 0 1 0 0-0.5 0-1 1.2-0.8 2.5-1.6c0.9-0.6 1.8-1.2 2.8-1.8q1.2-0.7 2.4-1.4c0.8-0.5 1.6-1.1 2.5-1.6 0.9-0.6 1.8-1.2 2.7-1.8 1.7-0.9 1.7-0.9 3.4-1.9 1.1-0.6 2.2-1.3 3.4-2 1.3-0.8 2.5-1.5 3.8-2.3 0.9-0.6 1.9-1.1 2.9-1.7 1.4-0.8 1.4-0.8 2.8-1.6q1.8-0.9 3.6-1.9c1-0.5 2.1-1 3.1-1.5q1-0.7 2-1.4 1.4-0.8 2.8-1.5c1.2-0.6 2.3-1.1 3.5-1.7 1.4-0.7 2.8-1.4 4.2-2.1 1.4-0.7 2.7-1.5 4-2.2 1.4-0.7 2.8-1.4 4.2-2.1q1-0.5 2.1-1 1.1-0.5 2.2-1c1.5-0.6 2.9-1.2 4.3-1.9 1.2-0.5 2.5-1.2 3.8-1.8 1.1-0.5 2.2-1 3.4-1.5q1.2-0.5 2.4-1 1.2-0.5 2.4-0.9c1.4-0.7 1.4-0.7 2.9-1.4 1.1-0.5 2.2-1 3.3-1.5q2.1-0.8 4.2-1.5 2-0.7 4-1.4c1.4-0.6 2.8-1.2 4.3-1.9 1.5-0.5 3-1.1 4.5-1.6q1.2-0.4 2.5-0.9 1.3-0.4 2.6-0.9 1.1-0.4 2.3-0.8 1.1-0.5 2.3-0.9 2.2-0.8 4.5-1.6c1.1-0.4 1.1-0.4 2.3-0.8q1.1-0.4 2.3-0.8 2-0.7 4-1.3c1.5-0.3 2.8-0.6 4.3-1 1.3-0.4 2.6-0.7 3.9-1.1 1.2-0.4 2.5-0.8 3.8-1.3 2.2-0.7 2.2-0.7 4.3-1.4 1-0.2 2-0.5 3-0.7q1.6-0.4 3.3-0.7c1.5-0.4 1.5-0.4 3-0.7 1.1-0.3 2.1-0.5 3.2-0.8 1.1-0.3 2.1-0.6 3.3-0.9 1.1-0.4 2.3-0.7 3.4-1 1.1-0.2 2.2-0.4 3.3-0.7 1.3-0.2 2.6-0.5 3.9-0.7 1.9-0.5 1.9-0.5 3.8-0.9 1.3-0.2 2.6-0.5 4-0.8 1.4-0.3 2.7-0.6 4.1-0.9 1.3-0.3 2.6-0.5 3.9-0.8q1.5-0.2 3-0.5 1.2-0.2 2.5-0.4c1.4-0.1 2.7-0.3 4.1-0.5q1.3-0.3 2.5-0.6 1.2-0.2 2.3-0.4c1.9-0.2 1.9-0.2 3.7-0.4 1.5-0.2 3-0.4 4.5-0.5q1.1-0.2 2.3-0.4 1.2-0.2 2.5-0.4 1.2-0.2 2.6-0.4 1.3-0.1 2.6-0.3 1.3-0.1 2.6-0.2 1.4-0.2 2.7-0.3 1.4-0.1 2.8-0.2c1.7-0.1 1.7-0.1 3.4-0.2 1.7-0.2 1.7-0.2 3.5-0.4 1.9-0.2 1.9-0.2 3.9-0.4 1.5-0.1 3-0.3 4.6-0.3q1.2-0.1 2.6-0.2 1.3-0.1 2.7-0.1z"/><path class="b" d="m475.1 601.5q1.9 0.2 3.8 0.4c1.1 0.4 2.2 0.6 3.4 1 1.1 0.2 2.3 0.4 3.5 0.6 2.1 0.5 2.1 0.5 4.2 0.8 1.3 0.3 2.6 0.7 3.9 1 1.3 0.2 2.6 0.6 4 0.9 1.4 0.3 2.8 0.7 4.3 1.1 2 0.4 2 0.4 4.1 0.9 1.1 0.2 2.2 0.4 3.4 0.6q1.5 0.2 3 0.5 1.3 0.2 2.7 0.4 1.1 0.2 2.4 0.4c1.6 0.3 1.6 0.3 3.1 0.7 1.6 0.3 1.6 0.3 3.1 0.7 1.2 0.3 1.2 0.3 2.4 0.5q1.3 0.2 2.6 0.4 1.4 0.3 2.8 0.6 1.4 0.2 2.7 0.4 1.3 0.3 2.5 0.5 1.3 0.3 2.5 0.6 1.1 0.2 2.4 0.4 1.1 0.2 2.2 0.5c1.4 0.2 2.9 0.4 4.4 0.7 1.6 0.2 3.1 0.5 4.7 0.7q1.5 0.2 2.9 0.4c1.6 0.3 1.6 0.3 3.2 0.5 1 0.2 2 0.4 3.2 0.5 1 0.2 2.1 0.3 3.2 0.5 1.1 0.2 2.2 0.4 3.3 0.6 1.1 0.1 2.2 0.3 3.3 0.4q1.4 0.3 3 0.5 1.4 0.2 2.8 0.4c1.7 0.3 1.7 0.3 3.4 0.6q1.4 0.2 2.9 0.4c1.6 0.1 1.6 0.1 3.1 0.2 1.2 0.1 2.4 0.2 3.6 0.3q1.2 0.2 2.4 0.4 1.3 0.3 2.7 0.5c1.4 0.2 1.4 0.2 2.9 0.5q1.5 0.2 3.1 0.5c1.2 0.1 2.3 0.2 3.5 0.4 1.3 0.1 2.5 0.2 3.8 0.4 1.2 0.1 2.4 0.2 3.7 0.3 1.1 0.1 2.2 0.2 3.4 0.3q1.3 0.2 2.5 0.4 1.2 0.2 2.4 0.4c1.5 0.2 3.1 0.4 4.6 0.7 1.4 0.1 1.4 0.1 2.8 0.2q1.5 0.1 3 0.2 1.6 0.1 3.2 0.2c1.7 0.2 1.7 0.2 3.5 0.3 2.1 0.3 2.1 0.3 4.3 0.5 1.5 0.2 3 0.4 4.5 0.5 1.5 0.2 3 0.4 4.5 0.5q2 0.2 4 0.5 1.4 0 2.8 0.1 1.2 0.1 2.3 0.1 1.1 0 2.2 0.1 1.4 0 2.7 0.1c1.2 0.1 2.2 0.2 3.4 0.3 1.2 0.2 2.4 0.3 3.6 0.4 1.4 0.1 2.8 0.3 4.2 0.4 1.4 0.1 2.8 0.2 4.2 0.4 1.3 0.1 2.6 0.1 3.9 0.2 1.3 0.1 2.5 0.1 3.9 0.2 1.9 0.1 1.9 0.1 3.8 0.1 1.3 0.1 2.6 0.2 4 0.2 1.3 0.1 2.5 0.1 3.9 0.2 1.9 0.1 1.9 0.1 3.9 0.2q2 0 4.1 0.1c2 0.1 2 0.1 4.1 0.2 1.3 0.1 2.6 0.2 4 0.2 1.4 0.1 2.8 0.2 4.3 0.3q1.1 0.1 2.3 0.1 1.3 0.1 2.6 0.2 1.4 0 2.8 0.1c1.1 0 2.1 0 3.2 0.1 1.9 0 1.9 0 4 0 1.3 0 2.8 0.1 4.3 0.1q2.2 0 4.6 0c1.6 0 3.1 0 4.8 0q1.2 0 2.4 0 1.2 0 2.4 0c1.3 0 1.3 0 2.5 0q1.2 0 2.5 0 1.2 0 2.5 0 1.3 0 2.6 0 1.2 0 2.5 0 1.3 0 2.6 0 1.3 0 2.5 0 1.2 0 2.5 0 1.3 0 2.6 0 1.2 0 2.5 0 1.2 0 2.5 0 1.2 0 2.5 0c1.2 0 1.2 0 2.4 0q1.3 0 2.5 0c1.2 0 1.2 0 2.4 0q1.2 0 2.4 0 2.3 0 4.8 0c2.2 0 2.2 0 4.5-0.1 1.5 0 3 0 4.5 0 1.3-0.1 2.7-0.1 4.1-0.1 1.9-0.1 1.9-0.1 3.9-0.1q1.7-0.1 3.6-0.2c1.7 0 1.7 0 3.5-0.1 1.5-0.1 1.5-0.1 3.1-0.1q1.5-0.1 3-0.2 1.3 0 2.6 0 1.3-0.1 2.5-0.2c2.2-0.1 2.2-0.1 4.5-0.3 1.7-0.1 1.7-0.1 3.4-0.2 1.1-0.1 2.2-0.2 3.4-0.3 1 0 2-0.1 3.1-0.1 1.1-0.1 2.2-0.1 3.4-0.1 1.2-0.1 2.3-0.1 3.5-0.1 1.3 0 2.5-0.1 3.7-0.1 1.5-0.1 2.8-0.2 4.3-0.2q1.3-0.1 2.6-0.2 1.4-0.1 2.8-0.3 1.4-0.1 2.9-0.2c1.5-0.1 1.5-0.1 3-0.2 1.4-0.2 1.4-0.2 2.9-0.3 1.5-0.2 1.5-0.2 2.9-0.3q1.4-0.1 2.8-0.2 1.3-0.2 2.6-0.2 2.1-0.2 4.2-0.3c1.2-0.1 2.4-0.2 3.6-0.3 1.1 0 2.3-0.1 3.4-0.2 1.6-0.1 1.6-0.1 3.2-0.2q1.6-0.2 3.2-0.3c1.1-0.2 2.1-0.3 3.2-0.4 1-0.2 2-0.3 3.1-0.4q1.5-0.2 3-0.3c1.5-0.2 1.5-0.2 3.1-0.3 1-0.1 2-0.1 3.1-0.2 1.4-0.1 1.4-0.1 2.9-0.3q1.4-0.1 2.9-0.2 1.2-0.2 2.5-0.3 1.2-0.2 2.4-0.4c1.5-0.3 3.1-0.5 4.6-0.7q1.3-0.2 2.6-0.3 1.4-0.1 2.7-0.2 1.3-0.1 2.7-0.3 1.3-0.1 2.6-0.2 1.2-0.2 2.5-0.3 1.1-0.2 2.4-0.4c1.5-0.3 3.1-0.5 4.7-0.7 1.5-0.2 3-0.4 4.6-0.5 2.2-0.3 2.2-0.3 4.5-0.5 1.5-0.2 2.9-0.4 4.5-0.7 1.5-0.3 3-0.5 4.6-0.7 1.2-0.2 1.2-0.2 2.4-0.4q1.3-0.1 2.5-0.3c1.3-0.2 1.3-0.2 2.7-0.3q1.5-0.3 3-0.5c1-0.1 2-0.3 3.1-0.5 1.2-0.1 2.3-0.3 3.5-0.5 1.8-0.3 1.8-0.3 3.8-0.7q2.1-0.3 4.4-0.7 1.4-0.2 2.9-0.5c1.5-0.2 1.5-0.2 3.1-0.4q1.5-0.3 3.1-0.6 1.6-0.2 3.2-0.4c1-0.2 2-0.4 3.1-0.5 1.4-0.3 1.4-0.3 2.9-0.5q1.3-0.2 2.8-0.5 1.2-0.2 2.4-0.4c1.2-0.2 2.4-0.5 3.6-0.8q1.3-0.3 2.7-0.6 2-0.4 4-0.8c1.4-0.2 2.7-0.4 4.1-0.7 1.7-0.4 1.7-0.4 3.5-0.8 1.1-0.1 2.1-0.4 3.2-0.6 1.5-0.3 1.5-0.3 2.9-0.5 1.4-0.2 1.4-0.2 2.9-0.5q1.4-0.3 2.9-0.7 1.4-0.3 2.8-0.7c1.3-0.3 1.3-0.3 2.6-0.5q1.3-0.2 2.7-0.5c1.8-0.5 1.8-0.5 3.5-0.9 1.9-0.5 1.9-0.5 3.7-1q1.6-0.4 3.2-0.9 1.3-0.2 2.5-0.5 1.2 0 2.4 0c0.1 1.6 0.1 1.6 0.3 3.3q-0.1 1.1-0.1 2.2c-0.1 1.3-0.1 1.3-0.2 2.6q-0.1 1.5-0.2 3c-0.1 1-0.3 2.1-0.4 3.2-0.1 1.1-0.3 2.1-0.4 3.2-0.1 1-0.3 2-0.4 3.1-0.3 2.2-0.3 2.2-0.6 4.5-0.3 1.5-0.5 3.1-0.8 4.6-0.3 1.5-0.3 1.5-0.7 3-0.2 1.1-0.4 2.1-0.7 3.2-0.4 1.6-0.4 1.6-0.7 3.2-0.3 1-0.6 2-0.8 3.1q-0.4 1.2-0.7 2.5-0.4 1.2-0.8 2.3c-0.4 1.4-0.9 2.8-1.4 4.3-0.6 1.8-0.6 1.8-1.2 3.7-0.6 1.7-0.6 1.7-1.2 3.5-0.5 1.2-0.9 2.5-1.5 3.7q-0.7 1.7-1.4 3.5-0.4 1.2-1 2.5-0.4 1.1-0.9 2.2-0.4 1.2-0.8 2.3-0.6 1.2-1.1 2.5c-0.6 1.2-1.2 2.3-1.8 3.4-0.7 1.3-1.4 2.5-2 3.8-0.6 1.2-1.2 2.3-1.8 3.6-0.7 1.3-1.4 2.7-2.1 4.1q-0.6 1.3-1.4 2.6c-0.8 1.3-0.8 1.3-1.5 2.7-0.7 1-1.2 1.9-1.8 3q-1 1.6-2 3.2c-0.8 1.2-1.5 2.4-2.3 3.6-0.8 1.2-1.6 2.5-2.4 3.7-0.8 1.2-1.7 2.4-2.5 3.6q-1.2 1.8-2.4 3.5c-0.6 1-1.4 1.9-2.1 2.9-0.9 1.3-0.9 1.3-1.9 2.6q-0.9 1.1-1.9 2.4-0.8 1-1.7 2.2-0.9 1-1.8 2.1-0.7 1-1.6 2c-0.9 1.2-1.9 2.3-2.9 3.5-0.7 0.9-1.5 1.8-2.3 2.7q-1 1-2 2.1-0.8 0.9-1.6 1.9-0.8 1-1.8 2c-0.7 0.8-1.5 1.7-2.3 2.6q-0.8 0.8-1.5 1.6-0.9 1-1.9 2c-1.4 1.4-1.4 1.4-2.8 2.8-1.5 1.6-1.5 1.6-3.1 3.2-1.4 1.4-1.4 1.4-2.9 2.9-1.4 1.2-1.4 1.2-2.7 2.6q-1.1 0.9-2.1 1.9-0.9 0.7-1.7 1.5c-0.9 0.7-1.7 1.5-2.6 2.3q-1.4 1.2-2.7 2.5c-0.8 0.6-1.7 1.4-2.5 2.1-1.4 1.1-1.4 1.1-2.8 2.2-1.7 1.3-1.7 1.3-3.4 2.7q-0.9 0.7-1.8 1.5-1 0.8-2 1.5-1.1 0.9-2.2 1.8-1.2 0.8-2.4 1.7-1.1 0.8-2.3 1.7c-1.1 0.8-1.1 0.8-2.2 1.6-1.1 0.7-2.2 1.4-3.2 2.2-1 0.7-2 1.4-3 2.1q-1.7 1.1-3.4 2.2c-1.2 0.9-2.5 1.7-3.8 2.6-0.9 0.5-1.8 1.1-2.7 1.6-1.4 0.9-1.4 0.9-2.7 1.7q-1.3 0.8-2.6 1.6-1 0.6-2.1 1.3-0.7 0.5-1.4 1c-0.1 1.4-0.2 3-0.2 4.5 0 1.4 0 1.4 0 2.9q0 1.6 0 3.2c-0.1 1.1-0.1 2.2-0.1 3.4q0 1.6 0 3.4 0 1.7 0 3.5c0 1.1 0 2.3 0 3.5q0 1.7 0 3.5 0 1.7 0 3.5c0 1.1 0 2.2-0.1 3.4 0 1.6 0 1.6 0 3.3q0 1.5 0 3.2 0 1.5 0 3 0 1.4 0 2.8-0.1 1.4-0.1 2.7-0.1 1.3-0.2 2.6c-0.2 1.1-0.2 1.1-0.3 2.3-0.1 1.2-0.3 2.5-0.5 3.8-0.2 1.4-0.2 1.4-0.4 3q-0.2 1.4-0.4 2.8c-0.2 1-0.3 2-0.5 3-0.2 1-0.4 2-0.6 3.1-0.3 1.5-0.3 1.5-0.6 3.1-0.4 1.5-0.4 1.5-0.7 3-0.3 1-0.5 1.9-0.8 3-0.4 1.4-0.4 1.4-0.8 2.9q-0.4 1.4-0.8 2.9-0.4 1.3-0.8 2.8c-0.4 1.3-0.4 1.3-0.9 2.7q-0.4 1.3-0.8 2.6-0.5 1.3-0.9 2.6-0.4 1.2-0.8 2.4c-0.4 1.2-0.4 1.2-0.9 2.4q-0.4 1.1-0.8 2.2c-0.5 1.1-1 2.3-1.5 3.6q-0.9 1.7-1.8 3.6-0.6 1.2-1.2 2.4-0.6 1.3-1.3 2.6c-0.7 1.4-0.7 1.4-1.3 2.8-0.5 0.9-1 1.8-1.5 2.7-0.5 1-1.1 2-1.6 2.9-0.6 1-1.2 1.9-1.8 2.8-0.5 1-1.1 1.9-1.7 2.8q-0.8 1.3-1.6 2.6c-0.9 1.2-1.8 2.5-2.7 3.8-0.9 1.1-1.7 2.2-2.6 3.4q-0.8 0.9-1.5 1.9-0.8 1-1.6 2-0.8 0.9-1.6 1.9-0.8 0.9-1.5 1.8c-0.8 1-1.7 1.9-2.5 2.9-0.9 0.9-1.8 1.9-2.8 2.9-1 1-1 1-2 2-1 1.1-1 1.1-2.1 2.2q-1 1-2.1 2.1-1 0.9-2 1.8c-1.4 1.2-1.4 1.2-2.8 2.5q-1.2 0.9-2.4 1.9-1.1 0.8-2.1 1.7-1.4 1-2.7 2.1-1.2 0.8-2.3 1.6c-0.9 0.5-1.8 1.2-2.7 1.7-0.8 0.6-1.7 1.2-2.7 1.8q-1.2 0.8-2.4 1.6-1.6 1-3.3 2.1c-1 0.6-1.9 1.2-2.9 1.7-1.3 0.7-2.5 1.3-3.7 2-1.4 0.6-2.7 1.2-4 1.9-1.3 0.6-2.6 1.3-3.9 1.9-1.4 0.7-2.8 1.3-4.3 1.9q-1.1 0.4-2.2 0.9-1.2 0.4-2.4 0.8c-1.2 0.4-1.2 0.4-2.4 0.9q-1.3 0.3-2.5 0.8-1.4 0.4-2.7 0.8-1.4 0.5-2.8 0.9c-1.4 0.4-1.4 0.4-2.8 0.9q-1.4 0.3-2.8 0.7-1.2 0.4-2.5 0.7-1.2 0.3-2.5 0.6-1.3 0.3-2.6 0.5-1.4 0.3-2.9 0.6c-1.8 0.4-1.8 0.4-3.7 0.6-1.3 0.3-2.6 0.5-3.9 0.7-1.8 0.3-1.8 0.3-3.5 0.6-1.3 0.2-2.5 0.3-3.8 0.5-1.3 0.2-2.6 0.4-3.9 0.5-2.4 0.3-2.4 0.3-4.7 0.5-1 0-2 0-3 0.1-1.1 0-2.2 0-3.4 0-1.7 0.1-1.7 0.1-3.4 0.1-1.9 0-1.9 0-3.7 0q-1.8 0-3.7 0c-1.2 0-2.5-0.1-3.7-0.1-1.2 0-2.4 0-3.6 0-1.1-0.1-2.2-0.1-3.3-0.1q-1.4-0.1-2.7-0.2-1.2-0.1-2.4-0.2c-2-0.2-2-0.2-4-0.5-1.2-0.2-2.4-0.4-3.7-0.5-1-0.2-2-0.3-3.1-0.5-2.2-0.4-2.2-0.4-4.5-0.7-1.4-0.3-2.7-0.5-4.1-0.8q-1.4-0.3-2.9-0.6c-1-0.2-2.1-0.5-3.1-0.8-1.1-0.2-2.1-0.5-3.1-0.7q-1.4-0.4-2.9-0.8c-1.3-0.3-2.7-0.8-4-1.2-1.2-0.3-2.4-0.8-3.6-1.2-2.1-0.7-2.1-0.7-4.2-1.4-1.4-0.5-2.7-1-4-1.4-1-0.4-1.9-0.8-2.9-1.2-1-0.4-1.9-0.8-2.9-1.2q-1.7-0.8-3.6-1.7c-1.1-0.5-2.3-1.1-3.5-1.7-1.4-0.7-1.4-0.7-2.7-1.4-1.3-0.7-1.3-0.7-2.6-1.5-1.1-0.5-2.1-1.1-3.2-1.7-1.2-0.7-2.3-1.4-3.5-2.1-1.3-0.9-2.6-1.7-3.9-2.6q-1.9-1.3-3.8-2.7c-1.1-0.7-2.1-1.6-3.2-2.3-1-0.8-2-1.7-3-2.5-1.7-1.4-1.7-1.4-3.4-2.8-1.7-1.4-1.7-1.4-3.3-2.9-1.2-1-2.3-2-3.4-3-0.9-0.9-1.9-1.8-2.9-2.8q-0.8-0.9-1.8-1.9-0.8-1-1.5-1.9-1-1.1-2.1-2.2-1.1-1.3-2.3-2.6c-0.8-1.1-1.6-2.1-2.5-3.2-0.9-1.1-1.8-2.3-2.7-3.5q-0.7-1-1.5-2-0.7-1-1.5-2-0.7-1.1-1.4-2.1-0.7-1-1.4-2.1-1.2-1.9-2.4-3.9-0.6-1-1.1-2-0.7-1.1-1.3-2.2c-0.5-0.9-0.9-1.8-1.4-2.7-0.5-1-1-1.9-1.6-2.9-0.4-0.9-0.9-1.9-1.4-2.8-0.7-1.3-0.7-1.3-1.3-2.7-0.7-1.3-1.3-2.7-1.9-4.1-0.5-1.2-1-2.3-1.5-3.5-0.4-1-0.9-2-1.3-3.1q-0.6-1.3-1.1-2.7c-0.5-1.4-0.9-2.8-1.4-4.3q-0.5-1.3-0.9-2.7c-0.5-1.5-0.5-1.5-0.9-3q-0.6-1.7-1.1-3.3-0.5-1.7-1-3.5c-0.2-1-0.5-2.1-0.8-3.2q-0.3-1.6-0.7-3.2c-0.2-1.1-0.5-2.1-0.7-3.2q-0.3-1.7-0.6-3.3-0.3-1.7-0.6-3.5c-0.2-1.2-0.3-2.3-0.5-3.5q-0.3-1.5-0.5-3.1-0.2-1.4-0.4-2.9c-0.1-1.2-0.1-1.2-0.2-2.4-0.1-1.4-0.1-1.4-0.2-2.8q0-1.3-0.1-2.6 0-1.3 0.1-2.7c0-1 0-1.9 0-3 0-1 0-2.1 0-3.2q0-1.6 0-3.4c0-1.1 0-2.2 0.1-3.4q0-1.7 0-3.6-0.1-1.7 0-3.6 0-1.7 0-3.6c0-1.1 0.1-2.3 0.1-3.5q0-1.8 0-3.5c0-1.1 0-2.2 0-3.3q0-1.7 0-3.3 0-1.5 0-3c-0.1-2.3-0.1-2.3-0.2-4.7q-1.3-0.5-2.4-0.9-1.1-0.7-2.2-1.2-1.2-0.8-2.4-1.5-1.3-0.8-2.6-1.6-1.2-0.7-2.4-1.5c-1-0.7-1.9-1.3-2.9-2.1q-1.2-0.8-2.4-1.7-1.2-0.7-2.4-1.5-1.4-0.9-2.9-1.9c-1.1-0.7-1.1-0.7-2.1-1.5-1.2-0.8-1.2-0.8-2.4-1.7q-1.2-0.9-2.4-1.8-1.1-0.8-2.2-1.7c-1.2-0.9-2.4-1.8-3.6-2.8-1-0.8-2.1-1.6-3.1-2.5-1-0.7-1.9-1.5-2.8-2.2q-1.2-1-2.5-2.1c-0.8-0.7-1.7-1.5-2.5-2.2-0.8-0.7-1.5-1.4-2.3-2.1q-0.9-0.8-1.8-1.6-1-0.8-2.1-1.8c-0.9-0.9-1.9-1.7-2.9-2.6q-1.6-1.5-3.3-3.1c-1.1-1.1-2.3-2.2-3.5-3.3-1.1-0.9-2.1-1.9-3.2-2.9q-0.8-1.1-1.8-2.1-0.7-0.9-1.6-1.8c-0.7-0.8-1.5-1.6-2.4-2.4-0.7-0.8-1.5-1.6-2.3-2.4q-0.9-0.8-1.7-1.8-0.8-1-1.7-2c-1-1.1-1.9-2.2-2.8-3.3-1-1.1-2-2.3-3-3.4q-0.9-1.2-1.9-2.5-0.9-1.1-1.8-2.3-1.2-1.4-2.3-2.9c-1.2-1.7-1.2-1.7-2.6-3.4q-0.7-1-1.5-2.1-0.8-1.1-1.6-2.2-0.8-1.1-1.6-2.2-0.8-1-1.5-2.1c-0.7-0.9-1.4-1.9-2-2.9-0.6-1-1.2-1.9-1.9-2.8q-1.1-1.9-2.3-3.8c-1.2-1.9-1.2-1.9-2.4-3.9q-1-1.6-2-3.2c-0.6-1-1.2-2-1.8-3-0.6-1.1-1.1-2.2-1.7-3.3q-0.9-1.7-1.7-3.5c-0.7-1.3-1.4-2.6-2.2-4q-1-2-2.1-4.1-0.8-1.7-1.5-3.5-0.7-1.6-1.4-3.2c-0.4-0.9-0.9-1.9-1.4-2.9-0.8-1.6-0.8-1.6-1.5-3.4q-0.5-1.3-1-2.7c-0.5-0.9-0.8-2-1.2-3-0.6-1.4-0.6-1.4-1.1-3-0.5-1.4-0.5-1.4-1-2.8-0.5-1.2-0.9-2.5-1.4-3.8-0.3-0.9-0.6-1.9-1-2.9q-0.2-1-0.4-2.1c-0.3-1.3-0.3-1.3-0.5-2.7q-0.4-1.5-0.9-3c-0.3-1.7-0.3-1.7-0.8-3.4-0.3-1.2-0.5-2.4-0.8-3.7-0.4-1.2-0.7-2.5-0.9-3.8-0.2-1.2-0.5-2.4-0.6-3.7-0.2-1.1-0.4-2.3-0.5-3.5q-0.3-1.6-0.5-3.1c-0.1-1-0.2-2-0.4-3.1q-0.1-1.6-0.3-3.2 0-1.5-0.1-3-0.1-2.3-0.3-4.5 0.2-1.8 0.3-3.6z"/><path class="c" d="m475.1 601.5q1.9 0.2 3.8 0.4c1.1 0.4 2.2 0.6 3.4 1 1.1 0.2 2.3 0.4 3.5 0.6 2.1 0.5 2.1 0.5 4.2 0.8 1.3 0.3 2.6 0.7 3.9 1 1.3 0.2 2.6 0.6 4 0.9 1.4 0.3 2.8 0.7 4.3 1.1 2 0.4 2 0.4 4.1 0.9 1.1 0.2 2.2 0.4 3.4 0.6q1.5 0.2 3 0.5 1.3 0.2 2.7 0.4 1.1 0.2 2.4 0.4c1.6 0.3 1.6 0.3 3.1 0.7 1.6 0.3 1.6 0.3 3.1 0.7 1.2 0.3 1.2 0.3 2.4 0.5q1.3 0.2 2.6 0.4 1.4 0.3 2.8 0.6 1.4 0.2 2.7 0.4 1.3 0.3 2.5 0.5 1.3 0.3 2.5 0.6 1.1 0.2 2.4 0.4 1.1 0.2 2.2 0.5c1.4 0.2 2.9 0.4 4.4 0.7 1.6 0.2 3.1 0.5 4.7 0.7q1.5 0.2 2.9 0.4c1.6 0.3 1.6 0.3 3.2 0.5 1 0.2 2 0.4 3.2 0.5 1 0.2 2.1 0.3 3.2 0.5 1.1 0.2 2.2 0.4 3.3 0.6 1.1 0.1 2.2 0.3 3.3 0.4q1.4 0.3 3 0.5 1.4 0.2 2.8 0.4c1.7 0.3 1.7 0.3 3.4 0.6q1.4 0.2 2.9 0.4c1.6 0.1 1.6 0.1 3.1 0.2 1.2 0.1 2.4 0.2 3.6 0.3q1.2 0.2 2.4 0.4 1.3 0.3 2.7 0.5c1.4 0.2 1.4 0.2 2.9 0.5q1.5 0.2 3.1 0.5c1.2 0.1 2.3 0.2 3.5 0.4 1.3 0.1 2.5 0.2 3.8 0.4 1.2 0.1 2.4 0.2 3.7 0.3 1.1 0.1 2.2 0.2 3.4 0.3q1.3 0.2 2.5 0.4 1.2 0.2 2.4 0.4c1.5 0.2 3.1 0.4 4.6 0.7 1.4 0.1 1.4 0.1 2.8 0.2q1.5 0.1 3 0.2 1.6 0.1 3.2 0.2c1.7 0.2 1.7 0.2 3.5 0.3 2.1 0.3 2.1 0.3 4.3 0.5 1.5 0.2 3 0.4 4.5 0.5 1.5 0.2 3 0.4 4.5 0.5q2 0.2 4 0.5 1.4 0 2.8 0.1 1.2 0.1 2.3 0.1 1.1 0 2.2 0.1 1.4 0 2.7 0.1c1.2 0.1 2.2 0.2 3.4 0.3 1.2 0.2 2.4 0.3 3.6 0.4 1.4 0.1 2.8 0.3 4.2 0.4 1.4 0.1 2.8 0.2 4.2 0.4 1.3 0.1 2.6 0.1 3.9 0.2 1.3 0.1 2.5 0.1 3.9 0.2 1.9 0.1 1.9 0.1 3.8 0.1 1.3 0.1 2.6 0.2 4 0.2 1.3 0.1 2.5 0.1 3.9 0.2 1.9 0.1 1.9 0.1 3.9 0.2q2 0 4.1 0.1c2 0.1 2 0.1 4.1 0.2 1.3 0.1 2.6 0.2 4 0.2 1.4 0.1 2.8 0.2 4.3 0.3q1.1 0.1 2.3 0.1 1.3 0.1 2.6 0.2 1.4 0 2.8 0.1c1.1 0 2.1 0 3.2 0.1 1.9 0 1.9 0 4 0 1.3 0 2.8 0.1 4.3 0.1q2.2 0 4.6 0c1.6 0 3.1 0 4.8 0q1.2 0 2.4 0 1.2 0 2.4 0c1.3 0 1.3 0 2.5 0q1.2 0 2.5 0 1.2 0 2.5 0 1.3 0 2.6 0 1.2 0 2.5 0 1.3 0 2.6 0 1.3 0 2.5 0 1.2 0 2.5 0 1.3 0 2.6 0 1.2 0 2.5 0 1.2 0 2.5 0 1.2 0 2.5 0c1.2 0 1.2 0 2.4 0q1.3 0 2.5 0c1.2 0 1.2 0 2.4 0q1.2 0 2.4 0 2.3 0 4.8 0c2.2 0 2.2 0 4.5-0.1 1.5 0 3 0 4.5 0 1.3-0.1 2.7-0.1 4.1-0.1 1.9-0.1 1.9-0.1 3.9-0.1q1.7-0.1 3.6-0.2c1.7 0 1.7 0 3.5-0.1 1.5-0.1 1.5-0.1 3.1-0.1q1.5-0.1 3-0.2 1.3 0 2.6 0 1.3-0.1 2.5-0.2c2.2-0.1 2.2-0.1 4.5-0.3 1.7-0.1 1.7-0.1 3.4-0.2 1.1-0.1 2.2-0.2 3.4-0.3 1 0 2-0.1 3.1-0.1 1.1-0.1 2.2-0.1 3.4-0.1 1.2-0.1 2.3-0.1 3.5-0.1 1.3 0 2.5-0.1 3.7-0.1 1.5-0.1 2.8-0.2 4.3-0.2q1.3-0.1 2.6-0.2 1.4-0.1 2.8-0.3 1.4-0.1 2.9-0.2c1.5-0.1 1.5-0.1 3-0.2 1.4-0.2 1.4-0.2 2.9-0.3 1.5-0.2 1.5-0.2 2.9-0.3q1.4-0.1 2.8-0.2 1.3-0.2 2.6-0.2 2.1-0.2 4.2-0.3c1.2-0.1 2.4-0.2 3.6-0.3 1.1 0 2.3-0.1 3.4-0.2 1.6-0.1 1.6-0.1 3.2-0.2q1.6-0.2 3.2-0.3c1.1-0.2 2.1-0.3 3.2-0.4 1-0.2 2-0.3 3.1-0.4q1.5-0.2 3-0.3c1.5-0.2 1.5-0.2 3.1-0.3 1-0.1 2-0.1 3.1-0.2 1.4-0.1 1.4-0.1 2.9-0.3q1.4-0.1 2.9-0.2 1.2-0.2 2.5-0.3 1.2-0.2 2.4-0.4c1.5-0.3 3.1-0.5 4.6-0.7q1.3-0.2 2.6-0.3 1.4-0.1 2.7-0.2 1.3-0.1 2.7-0.3 1.3-0.1 2.6-0.2 1.2-0.2 2.5-0.3 1.1-0.2 2.4-0.4c1.5-0.3 3.1-0.5 4.7-0.7 1.5-0.2 3-0.4 4.6-0.5 2.2-0.3 2.2-0.3 4.5-0.5 1.5-0.2 2.9-0.4 4.5-0.7 1.5-0.3 3-0.5 4.6-0.7 1.2-0.2 1.2-0.2 2.4-0.4q1.3-0.1 2.5-0.3c1.3-0.2 1.3-0.2 2.7-0.3q1.5-0.3 3-0.5c1-0.1 2-0.3 3.1-0.5 1.2-0.1 2.3-0.3 3.5-0.5 1.8-0.3 1.8-0.3 3.8-0.7q2.1-0.3 4.4-0.7 1.4-0.2 2.9-0.5c1.5-0.2 1.5-0.2 3.1-0.4q1.5-0.3 3.1-0.6 1.6-0.2 3.2-0.4c1-0.2 2-0.4 3.1-0.5 1.4-0.3 1.4-0.3 2.9-0.5q1.3-0.2 2.8-0.5 1.2-0.2 2.4-0.4c1.2-0.2 2.4-0.5 3.6-0.8q1.3-0.3 2.7-0.6 2-0.4 4-0.8c1.4-0.2 2.7-0.4 4.1-0.7 1.7-0.4 1.7-0.4 3.5-0.8 1.1-0.1 2.1-0.4 3.2-0.6 1.5-0.3 1.5-0.3 2.9-0.5 1.4-0.2 1.4-0.2 2.9-0.5q1.4-0.3 2.9-0.7 1.4-0.3 2.8-0.7c1.3-0.3 1.3-0.3 2.6-0.5q1.3-0.2 2.7-0.5c1.8-0.5 1.8-0.5 3.5-0.9 1.9-0.5 1.9-0.5 3.7-1q1.6-0.4 3.2-0.9 1.3-0.2 2.5-0.5 1.2 0 2.4 0c0.1 1.6 0.1 1.6 0.3 3.3q-0.1 1.1-0.1 2.2c-0.1 1.3-0.1 1.3-0.2 2.6q-0.1 1.5-0.2 3c-0.1 1-0.3 2.1-0.4 3.2-0.1 1.1-0.3 2.1-0.4 3.2-0.1 1-0.3 2-0.4 3.1-0.3 2.2-0.3 2.2-0.6 4.5-0.3 1.5-0.5 3.1-0.8 4.6-0.3 1.5-0.3 1.5-0.7 3-0.2 1.1-0.4 2.1-0.7 3.2-0.4 1.6-0.4 1.6-0.7 3.2-0.3 1-0.6 2-0.8 3.1q-0.4 1.2-0.7 2.5-0.4 1.2-0.8 2.3c-0.4 1.4-0.9 2.8-1.4 4.3-0.6 1.8-0.6 1.8-1.2 3.7-0.6 1.7-0.6 1.7-1.2 3.5-0.5 1.2-0.9 2.5-1.5 3.7q-0.7 1.7-1.4 3.5-0.4 1.2-1 2.5-0.4 1.1-0.9 2.2-0.4 1.2-0.8 2.3-0.6 1.2-1.1 2.5c-0.6 1.2-1.2 2.3-1.8 3.4-0.7 1.3-1.4 2.5-2 3.8-0.6 1.2-1.2 2.3-1.8 3.6-0.7 1.3-1.4 2.7-2.1 4.1q-0.6 1.3-1.4 2.6c-0.8 1.3-0.8 1.3-1.5 2.7-0.7 1-1.2 1.9-1.8 3q-1 1.6-2 3.2c-0.8 1.2-1.5 2.4-2.3 3.6-0.8 1.2-1.6 2.5-2.4 3.7-0.8 1.2-1.7 2.4-2.5 3.6q-1.2 1.8-2.4 3.5c-0.6 1-1.4 1.9-2.1 2.9-0.9 1.3-0.9 1.3-1.9 2.6q-0.9 1.1-1.9 2.4-0.8 1-1.7 2.2-0.9 1-1.8 2.1-0.7 1-1.6 2c-0.9 1.2-1.9 2.3-2.9 3.5-0.7 0.9-1.5 1.8-2.3 2.7q-1 1-2 2.1-0.8 0.9-1.6 1.9-0.8 1-1.8 2c-0.7 0.8-1.5 1.7-2.3 2.6q-0.8 0.8-1.5 1.6-0.9 1-1.9 2c-1.4 1.4-1.4 1.4-2.8 2.8-1.5 1.6-1.5 1.6-3.1 3.2-1.4 1.4-1.4 1.4-2.9 2.9-1.4 1.2-1.4 1.2-2.7 2.6q-1.1 0.9-2.1 1.9-0.9 0.7-1.7 1.5c-0.9 0.7-1.7 1.5-2.6 2.3q-1.4 1.2-2.7 2.5c-0.8 0.6-1.7 1.4-2.5 2.1-1.4 1.1-1.4 1.1-2.8 2.2-1.7 1.3-1.7 1.3-3.4 2.7q-0.9 0.7-1.8 1.5-1 0.8-2 1.5-1.1 0.9-2.2 1.8-1.2 0.8-2.4 1.7-1.1 0.8-2.3 1.7c-1.1 0.8-1.1 0.8-2.2 1.6-1.1 0.7-2.2 1.4-3.2 2.2-1 0.7-2 1.4-3 2.1q-1.7 1.1-3.4 2.2c-1.2 0.9-2.5 1.7-3.8 2.6q-1.3 0.8-2.7 1.6c-1.3 0.9-1.3 0.9-2.7 1.8q-1.2 0.7-2.5 1.5-1.1 0.7-2.2 1.3-1 0.2-1.9 0.5-0.1-1.2-0.3-2.4c0.1-1.7 0.1-1.7 0.1-3.4 0-1.3 0-2.5 0-3.9 0-2.1 0-2.1 0.1-4.3q0-2.2 0-4.5c0-2.3 0-2.3 0-4.7q0-1.3 0-2.5 0-1.3 0.1-2.6 0-1.2 0-2.5c0-1.3 0-1.3 0-2.6 0-1.2 0-1.2 0-2.5q0-1.3 0-2.6c0-1.3 0-1.3 0.1-2.6q0-1.2 0-2.6 0-1.3 0-2.6 0-1.3 0-2.6 0-1.3 0-2.7 0-1.3 0-2.7 0-1.3 0-2.7 0-1.3 0-2.7 0.1-1.4 0.1-2.8c0-1.3 0-1.3 0-2.7q0-1.4 0-2.8 0-1.4 0-2.8 0-1.3 0-2.7 0-1.4 0-2.8 0-1.4 0-2.8 0-1.4 0.1-2.8c0-1.4 0-1.4 0-2.8q0-1.3 0-2.7c0-1.4 0-1.4 0-2.8q0-1.4 0.1-2.8 0-1.3 0-2.7 0-1.3 0-2.7 0-1.3 0-2.7c0-1.3 0-1.3 0-2.6q0-1.3 0-2.7 0-1.3 0-2.6 0.1-1.3 0.1-2.6c0-1.3 0-1.3 0-2.6q0-1.2 0-2.5 0-1.3 0-2.6 0-1.2 0-2.6c0-1.2 0-1.2 0.1-2.5q0-1.3 0-2.6 0-1.1 0-2.4 0-2.4 0-4.7c0-2.3 0-2.3 0-4.6 0.1-1.4 0.1-2.8 0.1-4.3 0-1.9 0-1.9 0-3.9q0.1-1.7 0-3.4c-0.4-1.1-0.4-1.1-0.8-2.2q-1.4 0.1-2.9 0.3c-1.1 0.4-2.2 0.7-3.3 1.1-1.1 0.3-2.2 0.5-3.3 0.7-1.2 0.2-2.3 0.5-3.5 0.7-1.3 0.3-2.6 0.5-3.9 0.8q-2 0.3-4.2 0.7c-2 0.3-2 0.3-4.1 0.7-1.4 0.2-2.8 0.4-4.2 0.6q-2 0.2-4.1 0.5-1.9 0.3-3.9 0.6c-1.1 0.2-2.2 0.3-3.3 0.5-1 0.2-2.1 0.4-3.1 0.6q-1.4 0.2-2.9 0.4-1.3 0.2-2.7 0.4c-2.1 0.3-2.1 0.3-4.3 0.5-2.4 0.2-2.4 0.2-4.8 0.5-1.6 0.2-1.6 0.2-3.4 0.4-1.3 0.2-2.5 0.3-3.8 0.5-1.3 0.2-2.5 0.4-3.9 0.6q-1.8 0.2-3.7 0.4c-1.1 0.1-2.1 0.2-3.2 0.3-1.6 0.1-1.6 0.1-3.1 0.2-1.5 0.1-1.5 0.1-3 0.2-1.1 0.1-2.1 0.2-3.2 0.3-1.7 0.2-1.7 0.2-3.4 0.3-1.8 0.2-1.8 0.2-3.6 0.4-1.8 0.2-1.8 0.2-3.6 0.4q-1.8 0.2-3.8 0.3c-1.4 0-2.8 0.1-4.2 0.2-2.1 0-2.1 0-4.2 0.1-1.3 0-2.5 0-3.9 0.1-1.1 0-2.3 0-3.5 0.1q-1.4 0.1-2.9 0.2c-1.7 0.1-1.7 0.1-3.3 0.3q-1.6 0-3.4 0.1c-1.2 0-2.4 0.1-3.7 0.1-1.4 0-2.8 0.1-4.2 0.1-1.5 0.1-3 0.1-4.6 0.1-1.5 0-3.1 0.1-4.7 0.1q-1.3 0-2.5 0c-1.2 0-1.2 0-2.5 0q-1.2 0-2.5 0-1.3 0-2.6 0-1.3 0-2.6 0-1.2 0-2.6 0c-1.2 0-1.2 0-2.5 0q-1.3 0-2.6 0-1.2 0-2.6 0-1.2 0-2.5 0-1.3 0-2.6 0-1.2 0-2.5 0-1.2 0-2.4 0-1.3-0.1-2.5-0.1-1.2 0-2.5 0-1.2 0-2.4-0.1c-1.5 0-3.1 0-4.6-0.1q-2.3-0.1-4.5-0.1-2.1-0.1-4.3-0.1-1.8-0.1-3.7-0.2c-1.7-0.1-1.7-0.1-3.5-0.2-1.6-0.1-1.6-0.1-3.3-0.2-1.1 0-2.2-0.1-3.2-0.1-1.2-0.1-2.3-0.2-3.4-0.2-1.1-0.1-2.1-0.2-3.2-0.2-1.1 0-2.1-0.1-3.2-0.2q-1.4-0.1-2.8-0.2c-1.5-0.1-3-0.3-4.4-0.5q-2.1-0.2-4.3-0.4-1.3-0.1-2.6-0.3-1.3-0.1-2.8-0.2c-1.4-0.1-1.4-0.1-2.9-0.3q-1.4-0.1-2.8-0.2-1.5-0.1-2.9-0.2c-1.5-0.1-1.5-0.1-2.9-0.2q-1.4-0.2-2.8-0.3-1.4-0.1-2.8-0.3c-1.3-0.2-1.3-0.2-2.6-0.3q-1.3-0.2-2.6-0.4-1.2-0.2-2.5-0.4-1.2-0.1-2.4-0.3c-1.4-0.1-2.8-0.3-4.2-0.5-1.5-0.1-2.9-0.3-4.4-0.5-1.2-0.1-1.2-0.1-2.5-0.3q-1.3-0.1-2.6-0.3-1.4-0.2-2.7-0.4-1.4-0.2-2.8-0.3c-1.4-0.2-1.4-0.2-2.9-0.4q-1.4-0.2-2.8-0.4-1.4-0.2-2.8-0.4-1.2-0.1-2.5-0.3c-1.8-0.3-1.8-0.3-3.8-0.6-0.9-0.2-1.9-0.3-3-0.4q-1.3-0.3-2.7-0.5-1.2-0.2-2.5-0.5c-1.5-0.3-3-0.6-4.5-1-2-0.4-2-0.4-4.1-0.9q-2.1-0.4-4.4-0.7c-1.8-0.4-1.8-0.4-3.7-0.7-1.3-0.3-2.6-0.6-3.9-1q-0.2 1.1-0.5 2.3c0 1.1 0.1 2.3 0.1 3.4q0 1.9 0 4c0 1.4 0 2.8 0 4.3 0 2.3 0 2.3 0 4.5q0 2.4 0 4.8 0 1.3 0.1 2.5 0 1.3 0 2.6 0 1.3 0 2.6 0 1.2 0 2.6c0 1.2 0 1.2 0 2.5q0 1.3 0 2.6c0 1.3 0 1.3 0.1 2.6q0 1.3 0 2.6c0 1.3 0 1.3 0 2.6 0 1.3 0 1.3 0 2.7 0 1.3 0 1.3 0 2.6 0 1.4 0 1.4 0 2.8q0 1.3 0 2.7 0 1.3 0 2.7c0 1.4 0 1.4 0 2.8 0.1 1.3 0.1 1.3 0.1 2.8q0 1.3 0 2.8 0 1.4 0 2.7 0 1.4 0 2.9c0 1.3 0 1.3 0 2.8q0 1.3 0 2.7 0.1 1.4 0.1 2.9 0 1.4 0 2.7 0 1.4 0 2.8c0 1.4 0 1.4 0 2.8q0 1.4 0 2.8c0 1.3 0 1.3 0 2.7q0 1.4 0 2.8 0.1 1.3 0.1 2.7 0 1.3 0 2.6 0 1.4 0 2.7c0 1.3 0 1.3 0 2.6 0 1.3 0 1.3 0 2.6q0 1.3 0 2.6 0 1.3 0 2.6 0 1.3 0 2.6 0 1.3 0 2.5c0.1 1.3 0.1 1.3 0.1 2.6q0 1.3 0 2.6 0 1.2 0 2.5c0 2.3 0 2.3 0 4.8 0 1.5 0 2.9 0 4.5 0.1 1.4 0.1 2.8 0.1 4.3q0 1.9 0 4c0 1.6 0 1.6 0 3.4q-0.1 1.1-0.3 2.3-1.2-0.5-2.4-1-1-0.6-2.1-1.2-1.2-0.8-2.5-1.5-1.3-0.7-2.6-1.6-1.2-0.7-2.4-1.4c-0.9-0.7-1.9-1.4-2.9-2.1q-1.1-0.9-2.3-1.8-1.2-0.7-2.4-1.5-1.5-0.9-2.9-1.8c-1.1-0.8-1.1-0.8-2.1-1.6-1.2-0.8-1.2-0.8-2.4-1.7q-1.2-0.9-2.4-1.7-1.1-0.9-2.2-1.7c-1.2-1-2.4-1.9-3.6-2.8-1-0.8-2.1-1.7-3.1-2.5-1-0.7-1.9-1.5-2.8-2.2q-1.2-1.1-2.5-2.1c-0.8-0.8-1.7-1.5-2.5-2.2-0.8-0.8-1.5-1.4-2.3-2.2q-0.9-0.7-1.8-1.5-1-0.9-2.1-1.8c-0.9-0.9-1.9-1.8-2.9-2.7q-1.6-1.5-3.3-3.1c-1.1-1-2.3-2.1-3.5-3.2-1.1-1-2.1-2-3.2-3q-0.9-1-1.8-2-0.8-0.9-1.6-1.8c-0.8-0.8-1.5-1.6-2.4-2.4-0.8-0.8-1.5-1.6-2.3-2.4q-0.9-0.9-1.7-1.8-0.8-1-1.7-2.1c-1-1.1-1.9-2.1-2.8-3.3-1-1.1-2-2.2-3-3.4q-0.9-1.2-1.9-2.4-0.9-1.2-1.9-2.4-1.1-1.4-2.2-2.8c-1.3-1.7-1.3-1.7-2.6-3.4q-0.8-1.1-1.5-2.1-0.8-1.1-1.7-2.3-0.8-1.1-1.6-2.2-0.7-1-1.4-2c-0.7-1-1.4-2-2-3-0.6-0.9-1.2-1.8-1.9-2.8q-1.1-1.9-2.4-3.8c-1.2-1.9-1.2-1.9-2.4-3.9q-1-1.5-2-3.1c-0.5-1-1.2-2-1.8-3.1-0.5-1-1.1-2.2-1.6-3.3q-0.9-1.6-1.7-3.4c-0.8-1.3-1.5-2.7-2.3-4.1q-0.9-2-2.1-4.1-0.7-1.7-1.5-3.5-0.6-1.6-1.3-3.2c-0.5-0.9-1-1.8-1.4-2.8-0.8-1.7-0.8-1.7-1.5-3.4q-0.5-1.3-1.1-2.7c-0.4-1-0.7-2-1.1-3-0.6-1.5-0.6-1.5-1.1-3-0.5-1.4-0.5-1.4-1-2.8-0.5-1.3-0.9-2.5-1.4-3.8-0.4-1-0.7-1.9-1-2.9q-0.3-1.1-0.5-2.2c-0.2-1.3-0.2-1.3-0.5-2.6q-0.3-1.5-0.8-3c-0.4-1.7-0.4-1.7-0.8-3.4-0.3-1.2-0.6-2.5-0.9-3.7-0.3-1.3-0.6-2.5-0.8-3.8-0.2-1.2-0.5-2.5-0.7-3.7-0.2-1.2-0.3-2.3-0.5-3.5q-0.2-1.6-0.4-3.2c-0.1-1-0.3-2-0.4-3.1q-0.1-1.6-0.3-3.2 0-1.5-0.1-3-0.2-2.2-0.3-4.5 0.1-1.8 0.3-3.6z"/><path class="c" d="m926.3 236.1c2.1-0.1 2.1-0.1 4.2-0.3 2 0.1 2 0.1 4 0.3q1.2 0.3 2.5 0.5 1.1 0.4 2.3 0.9c0.9 0.5 1.9 0.9 2.9 1.4 1.4 0.7 1.4 0.7 2.8 1.5q1.1 0.8 2.3 1.5 1 0.9 2 1.9c1 1.2 1 1.2 2.1 2.5 0.6 0.9 1.1 1.8 1.8 2.7q0.6 1.3 1.4 2.7 0.4 1.3 1 2.6 0.3 1.1 0.5 2.1c0.2 1.4 0.2 1.4 0.4 2.7 0 1.1 0 2.2-0.1 3.4-0.1 1.2-0.1 2.3-0.2 3.5-0.1 1.2-0.1 2.4-0.2 3.6q0.2 1.4 0.5 2.9 1.3 0.6 2.7 1.1c1 0.1 2 0.2 3.1 0.4 2.2 0.5 2.2 0.5 4.4 1.2q1.2 0.3 2.5 0.7 1.3 0.5 2.7 0.9c0.9 0.4 1.9 0.9 2.9 1.2 1.5 0.7 1.5 0.7 3 1.4 1.4 0.7 1.4 0.7 2.9 1.4q1.3 0.6 2.7 1.3c1.3 0.7 2.6 1.5 4 2.3 1.1 0.6 2.1 1.3 3.2 2 0.8 0.7 1.7 1.3 2.6 2q1.1 0.9 2.2 1.9 0.9 0.7 1.9 1.5 0.9 0.9 1.9 1.8c1.1 1.4 1.1 1.4 2.3 2.8 0.6 1 1.3 2 2 3q0.7 1.2 1.4 2.4 0.5 1.2 1 2.4 0.3 1.1 0.6 2.2 0.2 1.3 0.4 2.6c0 1.2 0.1 2.5 0.2 3.8-0.1 1.2-0.2 2.5-0.2 3.8q-0.4 1.5-0.8 3.1c-0.6 1.3-0.6 1.3-1.1 2.7-0.6 0.9-1.1 1.7-1.7 2.6q-0.8 1.1-1.7 2.2-1.5 1.2-2.9 2.4c-1.3 0.8-1.3 0.8-2.6 1.5q-1.3 0.7-2.7 1.4c-1.2 0.3-2.5 0.6-3.8 0.9-1.3 0.1-2.7 0.1-4.1 0.2-1.5 0-3-0.1-4.5-0.2-1.2-0.2-2.3-0.4-3.5-0.7-1.1-0.4-2.1-0.8-3.2-1.2q-1.7-1-3.3-2c-1.2-0.7-2.3-1.5-3.4-2.3-1.8-1.4-1.8-1.4-3.7-2.7-1.7-1.3-1.7-1.3-3.5-2.6-1.6-1-1.6-1-3.2-2.1q-1.6-0.9-3.1-1.7c-1.2-0.6-1.2-0.6-2.4-1.3-1.4-0.5-1.4-0.5-2.8-1.1-2-0.7-2-0.7-4.1-1.4-1.1-0.3-1.1-0.3-2.3-0.6q-1.4-0.2-2.8-0.4c-1.1-0.1-2.2-0.2-3.4-0.2-1.8-0.1-1.8-0.1-3.6-0.1-1.2 0-2.4 0.1-3.6 0.1-1.6 0.1-1.6 0.1-3.3 0.2-2.1 0.3-2.1 0.3-4.3 0.6-1.1 0.2-2.2 0.5-3.3 0.8q-1.4 0.5-2.9 0.9-1.2 0.5-2.4 1-1.1 0.7-2.3 1.3-1 0.8-2 1.6-1.1 1.1-2.1 2.1-0.9 1.1-1.8 2.2c-0.4 1.1-0.9 2.2-1.4 3.4-0.1 1.7-0.1 1.7-0.3 3.5 0.2 1.8 0.2 1.8 0.3 3.7q0.6 1.3 1.2 2.6 0.8 1.1 1.7 2.2 0.9 0.9 1.9 1.8c0.8 0.7 1.6 1.3 2.4 2q1.2 0.8 2.4 1.5 1.3 0.8 2.6 1.5c1.2 0.7 1.2 0.7 2.5 1.4 1.3 0.7 1.3 0.7 2.6 1.4 1.4 0.6 1.4 0.6 2.8 1.3q1.2 0.5 2.4 1.1 1.2 0.4 2.4 0.9 1.2 0.5 2.4 1c1 0.4 1.9 0.7 2.9 1.2 0.9 0.4 1.9 0.7 2.9 1.2q1.2 0.4 2.4 0.8c0.9 0.4 1.9 0.8 2.9 1.1q1.1 0.4 2.2 0.9 1.2 0.5 2.5 1 1.2 0.5 2.5 1 1.2 0.5 2.4 0.9c1.2 0.5 2.3 0.9 3.6 1.3 1 0.4 2 0.7 3.1 1.1q1.1 0.6 2.3 1.2 1.2 0.6 2.5 1.2c1.2 0.6 2.3 1 3.5 1.6 2.1 0.9 2.1 0.9 4.1 1.8q1.2 0.6 2.4 1.1c1.1 0.7 1.1 0.7 2.3 1.3q1.2 0.6 2.4 1.2 1 0.6 2 1.2c1 0.6 1.9 1.1 2.8 1.7q1.3 0.8 2.5 1.6c1.1 0.8 2.3 1.6 3.4 2.4 1.1 0.8 2.2 1.6 3.3 2.4 0.9 0.8 1.8 1.6 2.7 2.4q1 0.9 2.1 1.9c0.8 0.7 1.6 1.3 2.4 2 0.7 0.8 1.4 1.5 2.1 2.4 0.8 0.9 1.5 1.9 2.2 2.8 0.6 0.9 1.2 1.7 1.8 2.6 0.5 0.9 1.1 1.8 1.6 2.7 0.6 1.1 1.1 2.2 1.8 3.3 0.7 1.7 0.7 1.7 1.6 3.4 0.3 1.1 0.7 2.3 1.1 3.4 0.3 1.7 0.3 1.7 0.8 3.3q0.3 1.5 0.6 3 0.1 1.6 0.3 3.3 0.1 2.3 0.2 4.7-0.1 1.3-0.1 2.5 0 1.2-0.1 2.4c-0.2 1.6-0.2 1.6-0.3 3.4q-0.3 1.6-0.6 3.3c-0.3 1.5-0.7 2.9-0.9 4.4q-0.5 2-1 4.2-0.3 1.2-0.6 2.5-0.5 1.1-0.9 2.3c-0.9 1.9-0.9 1.9-1.8 3.8-0.7 1.3-1.4 2.5-2 3.9-0.6 1-1.1 2-1.7 3q-0.9 1.4-1.7 2.7c-0.6 0.8-1.2 1.6-1.8 2.5-0.7 0.7-1.3 1.5-2 2.3-1.1 1.3-1.1 1.3-2.2 2.6-1.3 1.4-1.3 1.4-2.6 2.7-1.1 0.9-2.2 1.8-3.2 2.7-1.2 0.8-2.3 1.7-3.5 2.6-1.1 0.7-2.2 1.5-3.3 2.2q-1.7 1-3.4 2.1c-1.3 0.7-2.5 1.4-3.8 2.2q-1 0.5-2 1-1.2 0.6-2.4 1.1c-0.9 0.4-2 0.7-3 1.1-1.5 0.5-1.5 0.5-3 1.1-1 0.2-1.9 0.6-3 0.9q-1.2 0.4-2.5 0.7c-1.1 0.2-2.2 0.4-3.4 0.5 0 1.3-0.1 2.6-0.2 3.9q0 1.2 0 2.4 0.1 1.2 0.2 2.5 0 1.2 0 2.5 0 1.2 0 2.4 0 2.3 0 4.5c-0.1 1-0.4 2.1-0.6 3.1q-0.4 1.1-0.8 2.2-0.6 1.4-1.3 2.7-0.8 1.3-1.6 2.6-0.8 1.1-1.7 2.3-1 0.9-2.1 2c-0.8 0.6-1.7 1.2-2.5 1.8-0.9 0.5-1.8 1-2.8 1.6-1 0.4-2 0.9-3 1.4q-1.3 0.4-2.7 1-1.5 0.2-2.9 0.4c-1.4 0.1-2.7 0.2-4 0.2-1.6 0-3.1-0.1-4.6-0.2-1.3-0.3-2.6-0.8-3.9-1.2q-1.6-0.8-3.3-1.6c-0.9-0.7-1.8-1.3-2.7-1.9q-1-1-2.1-2c-1.1-1.1-2.2-2.2-3.4-3.3-0.8-1.3-1.6-2.6-2.4-3.9q-0.7-1.5-1.3-3c-0.4-1.2-0.7-2.4-1.1-3.7 0-1.5 0-2.9 0.1-4.4 0-1.6 0.1-3.1 0.2-4.7 0-1.6 0-3.2-0.1-4.7q-0.3-2-0.7-3.9-1-0.8-2-1.6-1.3-0.2-2.6-0.5-1.4-0.1-2.9-0.2-1.5-0.1-3-0.1c-1.4-0.4-1.4-0.4-2.7-0.7q-1.2-0.5-2.5-1-1.2-0.4-2.5-0.8-1.2-0.4-2.4-0.9c-1.3-0.5-2.6-1-3.9-1.6q-1.9-0.9-3.8-1.7c-1.3-0.7-2.7-1.4-4.1-2.1-1.3-0.8-2.7-1.5-4-2.2q-1.8-1.2-3.5-2.4-1.7-1.2-3.2-2.4c-1.3-1.1-1.3-1.1-2.6-2.2-0.7-0.8-1.4-1.4-2.2-2.2-1-0.9-1-0.9-2-1.8q-0.9-1-1.8-2c-0.9-1.3-0.9-1.3-1.8-2.6-0.5-0.8-1.1-1.8-1.6-2.7q-0.7-1.2-1.3-2.5-0.6-1.1-1.1-2.3c-0.3-1.2-0.6-2.5-1-3.8q-0.1-1.8-0.1-3.5 0-1.8 0.1-3.7 0.3-1.4 0.6-2.8 0.4-1.2 0.9-2.5 0.5-1 1-2.2 0.7-1 1.4-2.1c0.6-0.8 1.3-1.6 2-2.5 1.1-1.1 1.1-1.1 2.3-2.3q1.2-0.8 2.4-1.6 1.2-0.6 2.4-1.3c1.4-0.4 2.8-0.9 4.3-1.4q1.3-0.1 2.7-0.2c1 0.1 2 0.2 3.1 0.2 1.7 0.4 1.7 0.4 3.5 0.8 1.2 0.4 2.4 0.7 3.6 1.1 1.5 0.7 1.5 0.7 2.9 1.5 1.1 0.6 2.2 1.3 3.4 1.9 1.1 0.7 2.3 1.5 3.5 2.3 1.2 0.8 2.4 1.6 3.6 2.4 1.2 0.8 2.4 1.7 3.7 2.5q1.8 1.1 3.6 2.4c1.1 0.6 2.3 1.4 3.5 2.1 1 0.6 2.1 1.1 3.2 1.7q1.2 0.6 2.4 1.2 1 0.4 2.1 0.9 1.2 0.4 2.4 0.9c1.1 0.4 1.1 0.4 2.2 0.8 1.2 0.3 2.4 0.7 3.7 1q1.4 0.2 3 0.5c1.1 0.1 2.2 0.3 3.4 0.5 1.2 0 2.4 0.1 3.6 0.1 2.1 0 2.1 0 4.2 0 1.4 0 2.9 0.1 4.2 0.1 1.4-0.1 2.8-0.2 4.3-0.2 1.4-0.3 2.7-0.7 4.2-1 1.1-0.3 2.2-0.6 3.4-1q1.3-0.4 2.6-0.8 1.1-0.5 2.2-1.1 1.4-0.8 2.8-1.6 1.3-0.9 2.5-1.7c0.8-0.8 1.6-1.6 2.4-2.4q1.4-1.9 2.9-3.9c0.5-1.1 0.9-2.2 1.4-3.3q0.2-1.7 0.3-3.5-0.1-1.8-0.3-3.7c-0.4-0.9-0.7-1.9-1.1-2.8q-0.9-1.2-1.8-2.5c-0.9-1.1-0.9-1.1-1.8-2.2-0.8-0.7-1.7-1.4-2.5-2.1-1.1-0.8-2.2-1.6-3.4-2.5-1.2-0.7-2.5-1.5-3.8-2.3-1.1-0.7-2.3-1.3-3.5-2-1.2-0.6-2.4-1.2-3.7-1.8-1.3-0.7-2.6-1.3-4-2-1.4-0.6-2.7-1.2-4.1-1.9-1.3-0.5-2.6-1.1-3.9-1.7-1.2-0.5-2.5-1.1-3.8-1.6-1.1-0.5-2.3-0.9-3.5-1.3-1.4-0.6-2.7-1.1-4.2-1.6-1-0.4-2-0.9-3-1.3q-1.7-0.8-3.4-1.5c-1.7-0.8-1.7-0.8-3.3-1.5-1.6-0.7-1.6-0.7-3.2-1.5q-1.2-0.5-2.5-1.1-1.1-0.4-2.2-0.9c-1.3-0.6-2.6-1.2-3.9-1.8-1.1-0.6-2.2-1.1-3.3-1.7q-1.5-0.8-3-1.7c-1-0.5-2.1-1.1-3.2-1.7q-1.7-1-3.5-2.1-1-0.7-2-1.3-1-0.7-2.1-1.5-1-0.7-2.1-1.5-0.9-0.7-1.9-1.4-1.7-1.4-3.3-2.7c-1.5-1.3-1.5-1.3-3-2.6-0.8-0.8-1.6-1.7-2.5-2.6q-1.1-1.3-2.3-2.7c-0.8-1.2-1.6-2.4-2.5-3.6-0.8-1.2-1.5-2.4-2.3-3.6q-0.6-1.3-1.3-2.6-0.5-1.4-1.1-2.7c-0.4-1.3-0.8-2.6-1.3-4q-0.5-1.8-1-3.6-0.3-1.5-0.5-2.9-0.1-1.6-0.2-3.2c0-1.2 0-2.5 0-3.8 0-1.3 0-2.6 0-4 0.1-1.3 0.1-2.5 0.2-3.9q0.2-1.5 0.4-3.1 0.3-1.3 0.6-2.7 0.4-1.2 0.7-2.5 0.3-1.1 0.7-2.2c0.3-1.1 0.6-2.2 1-3.3 0.7-1.4 0.7-1.4 1.4-3 0.5-1 0.5-1 1-2.1q0.6-1.1 1.2-2.2 0.6-1.1 1.3-2.3 0.6-0.9 1.3-2c0.7-0.9 1.4-1.9 2.2-2.9 0.6-0.7 1.4-1.5 2.1-2.4 1-1.2 1-1.2 2.1-2.4 0.7-0.8 1.4-1.5 2.2-2.4 0.8-0.7 1.6-1.4 2.5-2.1 1.4-1.1 1.4-1.1 2.8-2.2 1-0.8 2.1-1.6 3.2-2.4 1.7-1.2 1.7-1.2 3.5-2.4 1.2-0.6 2.5-1.3 3.8-2 1.9-0.9 1.9-0.9 3.9-1.8q1.7-0.8 3.4-1.6c1.6-0.6 1.6-0.6 3.3-1.3q1.4-0.1 3-0.3 1.4-0.5 2.7-1.1c0.2-1.2 0.4-2.5 0.5-3.7q-0.1-2.3-0.3-4.7c0-1.4-0.1-3-0.2-4.6 0-2.1 0-2.1 0-4.3 0.4-1.1 0.7-2.3 1.1-3.5 0.6-1.3 0.6-1.3 1.3-2.7q0.8-1.3 1.6-2.6 0.9-1.1 1.8-2.2c0.9-1 0.9-1 1.8-2.1q1-0.8 2-1.7 1-0.8 2-1.6 1.1-0.6 2.3-1.3c1.1-0.5 2.2-0.9 3.4-1.4 1.2-0.3 2.5-0.7 3.8-1z"/><path class="c" d="m600.7 236.1c1-0.1 2.1-0.3 3.1-0.4 1.5 0 1.5 0 3.1 0 1 0 2.1 0 3.2 0.1 1.6 0.1 1.6 0.1 3.1 0.3 1.4 0.5 2.8 0.9 4.3 1.4 1.1 0.6 2.2 1.3 3.4 1.9 1.3 0.9 1.3 0.9 2.7 1.9q1 1 2.1 2 0.9 1 1.8 2.1c0.8 1.1 0.8 1.1 1.5 2.2q0.7 1 1.4 2.1 0.5 1.1 1 2.2 0.4 1.2 0.8 2.3c0.2 1 0.4 2 0.7 3 0 1.2 0 2.5 0 3.7q-0.1 2-0.1 4-0.1 2-0.2 4c0.1 1.1 0.2 2.1 0.3 3.1 1.4 0.3 1.4 0.3 2.8 0.5 2.2 0.6 2.2 0.6 4.5 1.3q1.3 0.4 2.6 0.8 1.2 0.4 2.5 0.8c1.3 0.4 2.6 0.9 4 1.4q1.8 0.7 3.7 1.5c1.3 0.6 2.5 1.2 3.9 1.8 1.2 0.7 2.5 1.3 3.8 2 1.2 0.7 2.4 1.4 3.6 2 1.2 0.8 2.4 1.6 3.6 2.3q0.9 0.7 1.9 1.5 0.9 0.8 1.9 1.6c1.6 1.6 1.6 1.6 3.4 3.2 0.8 0.9 1.6 1.8 2.4 2.7 0.6 0.9 1.3 1.7 1.9 2.5q0.6 1.1 1.4 2.2 0.4 1.1 1 2.2c0.5 1.4 0.9 2.8 1.4 4.3q0.1 1.2 0.3 2.4c0 1.2 0 1.2 0 2.5q0 1.3-0.1 2.6-0.1 1.3-0.2 2.5c-0.3 1.2-0.7 2.3-1 3.5-0.5 0.9-0.9 1.9-1.4 2.8-0.9 1.2-1.9 2.5-2.9 3.8q-1.6 1.4-3.3 2.9-1.2 0.7-2.4 1.3-1.2 0.6-2.4 1.1c-1.5 0.3-2.8 0.6-4.3 0.9-2.2 0.1-2.2 0.1-4.5 0.2-1.6 0-3.1-0.1-4.6-0.2q-1.4-0.3-2.9-0.7-1.2-0.6-2.4-1.2-1.3-0.6-2.7-1.4c-1-0.6-2-1.3-3.1-1.9q-1-0.8-2.1-1.6-1.2-0.9-2.4-1.7-1.1-0.9-2.3-1.8-1.1-0.8-2.3-1.6-1.8-1.2-3.6-2.3c-1-0.5-2-1.1-3.1-1.6-1.2-0.5-1.2-0.5-2.4-1.1q-1.2-0.4-2.4-0.8-1.6-0.5-3.2-1.1c-1.1-0.2-2-0.5-3-0.8q-1.2-0.3-2.4-0.5-1.4 0-2.8-0.1c-1.2 0-2.3 0-3.5 0-1.8 0-1.8 0-3.6 0-1.2 0-2.3 0.1-3.5 0.1q-1.4 0.2-2.9 0.4-1.2 0.2-2.5 0.4c-2.1 0.6-2.1 0.6-4.2 1.1-2.2 1-2.2 1-4.4 1.9-1.1 0.7-1.1 0.7-2.3 1.4-1 0.7-1 0.7-2 1.5q-1.4 1.6-2.9 3.4c-0.5 1.1-1 2.2-1.4 3.3q-0.3 1.2-0.5 2.4c0 1.6 0 3.2 0 4.8q0.5 1.2 1 2.3 0.8 1 1.4 2c0.9 0.8 1.6 1.6 2.4 2.4q1 0.9 2 1.8c1 0.7 1.9 1.4 2.8 2.1 1.1 0.6 2.2 1.3 3.4 2 0.9 0.6 0.9 0.6 2 1.1q1.1 0.6 2.3 1.2c1 0.4 2.1 0.9 3.1 1.4q1.6 0.6 3.3 1.4c1 0.4 2.1 0.8 3.1 1.3 1 0.3 2 0.8 3 1.2q1.2 0.4 2.4 0.9 1.2 0.5 2.4 1c1.4 0.5 1.4 0.5 2.7 1q1.6 0.6 3.1 1.2 1.6 0.6 3.3 1.3c1.7 0.6 1.7 0.6 3.3 1.3 1.1 0.4 2.2 0.8 3.3 1.3 1 0.4 2 0.8 3 1.3q1.4 0.5 2.8 1.2 1.2 0.4 2.4 1c1.3 0.4 2.6 0.9 3.9 1.4 1.1 0.5 2.2 1.1 3.4 1.6 1.4 0.8 2.8 1.5 4.2 2.2q1.3 0.7 2.7 1.4c0.9 0.5 1.9 1 2.8 1.5 0.9 0.5 1.7 1 2.7 1.5q1.1 0.7 2.4 1.4c1 0.7 2 1.3 3 2 1.1 0.9 1.1 0.9 2.3 1.8q1.1 0.9 2.3 1.9c1.2 1 1.2 1 2.5 2 0.9 0.8 1.8 1.6 2.8 2.4 1 1 1.9 1.9 2.9 2.8 0.9 1.1 1.8 2.2 2.8 3.4 0.8 1.1 1.6 2.2 2.5 3.4 0.9 1.4 0.9 1.4 1.9 2.9q0.6 1.4 1.4 2.8 0.7 1.4 1.4 2.9c0.5 1.4 0.5 1.4 1 2.9 0.5 1.5 0.5 1.5 0.9 2.9q0.3 1.4 0.6 2.8c0.1 1.3 0.3 2.6 0.5 3.9q0 1.3 0.1 2.7 0 1.5 0 3c0 1.6 0 1.6-0.1 3.2q0 1.5 0 3c-0.2 2.1-0.2 2.1-0.4 4.1-0.2 1.2-0.4 2.4-0.6 3.6-0.5 2.2-0.5 2.2-1 4.4-0.5 1.4-1 2.8-1.4 4.2-0.7 2-0.7 2-1.4 3.9-0.7 1.7-0.7 1.7-1.5 3.3q-0.5 1.3-1.1 2.5-0.6 1.2-1.3 2.3c-0.5 1-1.2 1.9-1.7 2.9-0.8 0.9-1.4 1.9-2.1 2.9q-1 1.3-2.1 2.7c-0.7 0.8-1.5 1.7-2.2 2.6-0.8 0.8-1.5 1.5-2.3 2.4-0.8 0.8-1.6 1.5-2.5 2.4q-1.5 1.1-2.9 2.4c-1.1 0.7-2.2 1.5-3.3 2.4-1.4 0.8-2.7 1.6-4.1 2.4-2 1.2-2 1.2-4.1 2.3-1.1 0.6-2.1 1.1-3.2 1.6-1 0.5-2 0.9-3 1.3-1.3 0.6-2.6 1-3.9 1.6-1.2 0.4-2.5 0.8-3.8 1.3q-1.7 0.1-3.4 0.3c-1.4 0.6-1.4 0.6-2.8 1.1-0.3 1.8-0.3 1.8-0.6 3.6 0.1 1.4 0.2 2.9 0.3 4.4q0.1 2.3 0.2 4.6 0 2 0.1 4.2-0.2 1.4-0.5 2.8-0.3 1-0.5 2.1-0.8 1.6-1.4 3.3c-0.7 1.2-0.7 1.2-1.4 2.4q-0.7 0.9-1.5 1.9c-0.9 1.1-0.9 1.1-1.8 2.2-1 1-1 1-2 2.1q-1.1 0.8-2.1 1.5-1.1 0.7-2.3 1.4-1.6 0.6-3.2 1.3-1.5 0.5-3 1.1-1.4 0.2-2.9 0.5c-1.8 0-1.8 0-3.7 0.1-1.3 0-2.6-0.1-3.9-0.1q-1.3-0.3-2.6-0.6-1.1-0.4-2.2-0.9-1.3-0.6-2.7-1.2-1.3-0.9-2.6-1.7c-0.8-0.6-1.7-1.3-2.5-2-0.8-0.7-1.6-1.5-2.4-2.3q-0.9-1.1-1.7-2.2-0.8-1.3-1.6-2.6c-0.4-1.1-0.9-2.3-1.4-3.5-0.3-1-0.6-2.1-1-3.2q-0.3-1.2-0.5-2.4c0.1-1.2 0.1-2.5 0.1-3.8 0-1.5 0.1-2.9 0.1-4.5 0-1.5 0.1-2.9 0.2-4.5q-0.2-1.7-0.4-3.5-1.8 0-3.8 0c-1.3-0.3-2.7-0.7-4-1-1.2-0.3-1.2-0.3-2.3-0.7-1.1-0.3-1.1-0.3-2.4-0.7-1.4-0.5-2.9-0.9-4.5-1.4-2-0.7-2-0.7-4-1.5q-1.4-0.5-2.8-1.1-1.3-0.6-2.6-1.3c-1.2-0.5-2.4-1.1-3.6-1.7-1.4-0.7-2.7-1.4-4-2.1-1.3-0.8-2.6-1.5-4-2.3-1.2-0.8-2.4-1.6-3.7-2.5-1.1-0.9-2.3-1.8-3.4-2.7-1.4-1.3-1.4-1.3-2.8-2.6-1.1-1.1-2.2-2.2-3.4-3.3-1.1-1.5-1.1-1.5-2.2-2.9-1.1-1.7-1.1-1.7-2.1-3.3-0.6-1-1.2-1.9-1.7-2.8q-0.6-1.7-1.2-3.5-0.1-1.4-0.3-2.8c0-1.1 0-2.1 0-3.2 0-1 0-2 0-3.1q0.2-1.4 0.3-2.9c0.4-1.2 0.8-2.4 1.3-3.6 0.5-0.9 1.1-1.7 1.6-2.6 1.4-1.9 1.4-1.9 2.9-3.8q1-0.9 2.1-1.8c1.1-0.8 1.1-0.8 2.2-1.6 1.7-1 1.7-1 3.3-1.9q1.2-0.3 2.3-0.6 1.3-0.2 2.5-0.4c1.6 0 3.2 0 4.8 0q1.3 0.3 2.7 0.5c1 0.3 2 0.6 3.1 1 1.8 0.9 1.8 0.9 3.8 1.8 1 0.5 1 0.5 2 1.1q1.2 0.7 2.3 1.4c0.9 0.6 1.8 1.1 2.7 1.8 1.4 0.9 1.4 0.9 2.8 1.8q1.3 0.9 2.5 1.8c1.3 0.9 1.3 0.9 2.6 1.8 0.9 0.5 1.8 1.1 2.7 1.7q1.3 0.8 2.6 1.6c1.1 0.7 2.3 1.3 3.5 2 1.2 0.6 2.4 1.2 3.6 1.9 1.2 0.4 2.5 0.9 3.7 1.3 1.8 0.5 1.8 0.5 3.6 1.1 0.9 0.3 1.9 0.5 2.9 0.8q1.4 0.3 2.8 0.6c1.5 0.1 1.5 0.1 2.9 0.3 1.1 0 2.2 0.1 3.4 0.2 1.1 0 2.2 0.1 3.3 0.1q1.7 0 3.5 0 1.8 0 3.7 0 1.6-0.1 3.4-0.1c1.4-0.3 2.8-0.5 4.2-0.7 1.7-0.6 1.7-0.6 3.5-1.2 2-0.9 2-0.9 4-1.9 1.2-0.6 2.4-1.3 3.6-2q1.2-0.8 2.5-1.7 0.9-0.8 1.8-1.6c1-1.3 2-2.6 2.9-3.9 0.6-1.2 1.3-2.5 1.9-3.8q0.2-1.6 0.3-3.3-0.1-1.7-0.3-3.4-0.6-1.5-1.3-2.9-0.7-1.2-1.5-2.4c-0.9-0.9-1.6-1.9-2.4-2.9-1.1-0.9-1.1-0.9-2.1-1.8-0.9-0.7-1.8-1.3-2.7-2-1-0.7-2-1.3-3.1-2-1.4-0.8-2.7-1.6-4.1-2.3-1.1-0.5-2.1-1.1-3.2-1.6-1.1-0.5-2.2-1.1-3.4-1.6-1.1-0.6-2.2-1.1-3.3-1.6-1-0.5-2-1-3.1-1.5q-1.3-0.6-2.7-1.2-1.3-0.6-2.5-1.1-1.2-0.5-2.5-1.1-1.2-0.4-2.4-0.9-1.2-0.4-2.4-0.9-1.2-0.5-2.3-1c-2-0.9-2-0.9-3.9-1.9q-1.2-0.4-2.5-0.9-1.4-0.5-2.8-1c-1.4-0.7-1.4-0.7-2.9-1.5-0.9-0.4-1.9-0.9-2.9-1.4q-1.1-0.4-2.2-0.9-1.3-0.5-2.5-1c-1-0.5-1.9-0.9-2.9-1.4-1-0.5-2-1.1-3-1.6-1.1-0.5-2.2-1.1-3.2-1.7-1-0.5-1.9-1-2.9-1.5-1.8-1.2-1.8-1.2-3.7-2.3q-1.4-1-3-2.1c-1.3-0.9-2.5-1.7-3.8-2.7q-1-0.7-2-1.4-0.9-0.8-1.9-1.6-1-0.9-1.9-1.7-0.9-1-1.9-1.9c-0.9-0.9-0.9-0.9-1.7-1.8-0.9-0.9-0.9-0.9-1.7-1.8-0.9-1.2-1.8-2.4-2.7-3.6-0.7-1-1.3-2-2.1-3.1q-0.6-1-1.3-2.1-0.6-1.1-1.1-2.2c-0.5-1.3-1-2.6-1.5-3.9-0.5-1.4-0.9-2.9-1.3-4.3-0.3-1.2-0.5-2.5-0.8-3.8 0-1.3-0.1-2.5-0.2-3.9 0-1.5-0.1-2.9-0.2-4.4 0.1-1.6 0.2-3.1 0.2-4.7q0.1-1.2 0.2-2.5 0.2-1.3 0.4-2.6 0.4-2.2 0.8-4.5 0.3-1.3 0.7-2.6 0.4-1.1 0.7-2.2 0.6-1.3 1-2.6c0.5-1.1 1-2.1 1.4-3.1 0.8-1.3 1.4-2.6 2.1-3.8q1.1-1.9 2.2-3.9c0.7-0.9 1.3-1.9 2-2.9 0.8-0.9 1.5-1.9 2.4-2.8q0.8-0.9 1.6-1.8 0.9-0.9 1.8-1.9 0.9-0.8 1.9-1.8 0.9-0.9 1.9-1.7c1.2-0.9 2.4-1.9 3.6-2.9q1.7-1.2 3.5-2.4 1.9-1.1 3.8-2.3c2-1 2-1 4-2q1.1-0.5 2.2-1.1 1.1-0.5 2.3-1c1.3-0.6 2.7-1.2 4.1-1.8 1.4-0.4 2.8-0.9 4.3-1.4q0.7 0 1.4 0c0.1-1.5 0.1-1.5 0.2-3-0.1-1.4-0.1-2.7-0.2-4 0-1.3 0-2.6 0-4 0-1.3 0-2.6 0-3.9 0.4-1.6 0.4-1.6 0.7-3.4q0.4-1.4 0.8-2.8 0.6-1.3 1.2-2.7 0.9-1.3 1.7-2.6c1-1.2 1-1.2 2-2.5q1.1-1.1 2.3-2.3 1.1-0.9 2.3-1.8 1.2-0.8 2.5-1.5 1.3-0.6 2.6-1.3c1.1-0.4 2.1-0.7 3.1-1.1z"/><path class="d" d="m773.4 686.3c1.4-0.1 1.4-0.1 3-0.2 1 0.1 2.1 0.2 3.2 0.2 1.7 0.4 1.7 0.4 3.4 0.8q1.6 0.6 3.3 1.2c1.4 0.6 1.4 0.6 2.8 1.3 1.2 0.7 1.2 0.7 2.5 1.5q1 0.7 2 1.6 0.9 0.9 1.8 1.8 0.9 1.1 1.8 2.2 0.8 1.2 1.6 2.6c0.4 1 0.9 2 1.4 3q0.4 1.3 1 2.7 0.2 0.9 0.4 2c0 1.6 0 1.6-0.2 3.3q-0.1 2-0.1 4c0 1.4 0 2.7 0.1 4.1 0.3 1.7 0.3 1.7 0.7 3.4 1.1 0.8 1.1 0.8 2.2 1.5q1.3 0.4 2.8 0.7 1.4 0.2 2.8 0.4 1.4 0.2 2.8 0.3c1.1 0.4 2.2 0.8 3.4 1.2q1.4 0.6 2.8 1.2 1.4 0.5 2.8 1.1c1 0.4 2 0.9 3 1.2 1.1 0.7 2.3 1.2 3.5 1.9 1.2 0.6 2.4 1.3 3.7 2 1.1 0.7 2.3 1.6 3.5 2.3 1 0.8 2.1 1.7 3.2 2.5 1.3 1 1.3 1 2.6 2.1 0.7 0.7 1.4 1.5 2.2 2.2 0.6 0.9 1.3 1.8 2 2.6 0.6 0.9 1.2 1.8 1.8 2.7q0.7 1.1 1.3 2.1c0.6 1.1 0.6 1.1 1.1 2.2q0.4 1.4 0.9 2.8 0.2 1.5 0.5 3 0.1 1.5 0.2 3-0.1 1.3-0.2 2.7c-0.3 1.3-0.6 2.5-0.9 3.8-0.6 1.5-1.3 2.9-1.9 4.4-1 1.2-2 2.5-2.9 3.8q-1 0.9-2 1.8c-1.1 0.8-1.1 0.8-2.3 1.6-0.9 0.5-1.9 0.9-2.8 1.4q-1.7 0.5-3.5 1-1.2 0.1-2.4 0.2-1.3 0.1-2.6 0.1-1.2-0.1-2.6-0.1-1.2-0.1-2.4-0.2c-1.2-0.3-2.3-0.6-3.5-0.9-1.1-0.5-2.2-1-3.2-1.5-1.3-0.8-2.5-1.7-3.8-2.5-1.3-0.9-2.7-1.8-3.9-2.8-1.3-0.9-2.5-1.8-3.8-2.8-1.1-0.8-2.2-1.6-3.5-2.5-1-0.6-2-1.2-3-1.8-1-0.5-2.1-1-3.1-1.5q-1.8-0.7-3.6-1.4-1.8-0.5-3.6-1c-1.2-0.3-2.3-0.5-3.4-0.6-1.9-0.2-1.9-0.2-3.8-0.4q-1.3-0.1-2.6-0.1-1.3 0-2.7 0-1.3 0-2.7 0-1.3 0.1-2.6 0.1c-2 0.3-2 0.3-4.2 0.6-1.2 0.3-2.3 0.6-3.5 0.9q-1.4 0.3-2.8 0.8-1.2 0.5-2.4 1.1-1.3 0.7-2.6 1.6-1.1 0.8-2.2 1.7c-1 1.3-1.9 2.6-2.9 3.9-0.5 1.1-1 2.2-1.4 3.3-0.1 1-0.2 2-0.3 3.1 0.1 1 0.2 2.1 0.3 3.2q0.4 1.1 0.9 2.3 0.7 0.9 1.5 2 0.8 1 1.7 2.1c0.8 0.7 1.7 1.4 2.6 2.2q0.9 0.6 1.9 1.3 1.1 0.7 2.3 1.3 1.2 0.7 2.4 1.4c1.2 0.6 1.2 0.6 2.5 1.3 1.2 0.6 1.2 0.6 2.5 1.2q1.3 0.5 2.6 1.1 1 0.5 2.2 1c1.1 0.5 1.1 0.5 2.3 1q1.2 0.5 2.4 1 1.2 0.4 2.4 0.9c1.1 0.4 2.2 0.9 3.4 1.4 1.2 0.5 2.5 0.9 3.8 1.5 2 0.7 2 0.7 4.1 1.5 1.3 0.4 2.7 0.9 4 1.3 1.1 0.5 2.3 0.9 3.4 1.3 1.4 0.6 1.4 0.6 2.8 1.1 1.9 1 1.9 1 3.9 2 1.7 0.7 1.7 0.7 3.3 1.4 1.5 0.6 2.9 1.2 4.4 1.9 1.1 0.5 1.1 0.5 2.2 1.1q1.1 0.5 2.3 1.1 1.2 0.6 2.5 1.3 1.2 0.6 2.5 1.3 1.2 0.7 2.5 1.5 1.1 0.7 2.3 1.4c1.1 0.8 1.1 0.8 2.3 1.5q1 0.7 2.1 1.4c1.5 1.1 1.5 1.1 3 2.2 0.9 0.6 1.8 1.4 2.7 2.1 1 0.8 1.9 1.6 2.9 2.5 0.9 0.9 1.9 1.8 2.9 2.8q1.3 1.5 2.7 3.2c0.9 1.2 1.7 2.3 2.5 3.5q1.1 1.6 2.1 3.4c0.6 1.1 1.2 2.1 1.8 3.3 0.4 1 0.9 2 1.3 3.1q0.5 1.5 1.1 3.1c0.2 1.1 0.5 2.1 0.8 3.2q0.3 1.9 0.6 4 0.1 1.5 0.2 3c0 1.1 0 2.2 0 3.4 0 1.1 0 2.3 0 3.5 0 1.2-0.1 2.3-0.2 3.5q-0.2 1.7-0.4 3.3c-0.3 1.1-0.4 2.2-0.6 3.3-0.3 1.4-0.3 1.4-0.7 3q-0.3 1.5-0.7 2.9-0.4 1.3-0.8 2.5-0.4 1.2-0.8 2.3c-0.5 1.5-1.1 2.9-1.7 4.3-0.7 1.4-1.4 2.7-2.2 4-0.7 1.2-1.4 2.4-2.2 3.7q-1 1.5-2.1 3c-0.7 0.9-1.4 1.8-2.2 2.7-0.8 1-1.6 2-2.5 3-0.9 0.8-1.8 1.8-2.7 2.8-1.2 0.9-2.3 1.8-3.4 2.8-1.1 0.7-2.3 1.6-3.4 2.5q-1.2 0.8-2.5 1.7-1.3 0.8-2.7 1.6c-1 0.6-1 0.6-2.1 1.2q-1.1 0.6-2.2 1.2-1.2 0.6-2.4 1.3c-1.2 0.5-1.2 0.5-2.5 1.1q-1.3 0.5-2.6 1-1.4 0.5-2.8 0.9c-1.1 0.4-1.1 0.4-2.4 0.8q-1.1 0.3-2.2 0.6c-1.3 0.4-2.6 0.7-3.9 1q-0.1 1.7-0.3 3.4c0 1.5 0.2 3 0.2 4.5 0 2.2 0 2.2 0.1 4.4q0 2 0 4-0.3 1.5-0.6 3-0.4 1.1-0.8 2.3c-0.5 1.1-0.9 2.2-1.5 3.4-0.7 1.1-1.2 2.1-1.8 3.3-0.9 0.8-1.6 1.7-2.4 2.6-0.8 0.7-1.6 1.5-2.5 2.2-1.1 0.8-1.1 0.8-2.2 1.6q-1.3 0.6-2.5 1.2c-0.9 0.4-1.9 0.8-2.9 1.2-1.6 0.4-1.6 0.4-3.4 0.8-1.1 0.1-1.1 0.1-2.3 0.1-1.3 0.1-1.3 0.1-2.6 0.1-1.5-0.1-3.1-0.2-4.7-0.2q-1.3-0.3-2.6-0.6-1.2-0.4-2.2-0.9-1.2-0.6-2.4-1.2-1.2-0.8-2.4-1.6-1.2-1-2.4-2c-1.1-1.2-1.1-1.2-2.3-2.4-0.8-1-1.4-2-2.2-3q-0.8-1.6-1.7-3.2-0.4-1-0.8-2-0.4-1.4-0.6-2.7c0-2.2 0-2.2 0-4.5q0-1.1 0-2.3 0.1-1.2 0.1-2.5 0.1-1.2 0.1-2.4 0-1.2 0-2.4-0.1-1.8-0.2-3.7-1.7 0-3.4 0-1.1-0.3-2.2-0.5-1.3-0.4-2.7-0.7c-1.3-0.4-1.3-0.4-2.7-0.8q-1.4-0.5-2.9-0.9-1.4-0.4-2.8-0.9-1.3-0.5-2.6-0.9-1.3-0.5-2.7-1-1.2-0.5-2.5-1-1.1-0.6-2.3-1.1c-1.1-0.6-1.1-0.6-2.1-1.2-1.2-0.7-2.5-1.3-3.7-2.1q-1.2-0.5-2.3-1.1-1-0.6-2-1.3c-1.7-1.1-1.7-1.1-3.4-2.2-1.6-1.3-1.6-1.3-3.4-2.5-0.9-0.8-1.8-1.5-2.7-2.4-0.9-0.8-1.7-1.6-2.5-2.4-0.8-1-1.6-1.9-2.3-2.9-1-1.4-1-1.4-2-2.9-0.9-1.4-0.9-1.4-1.7-2.9-0.4-1-0.8-1.9-1.2-2.9q-0.5-1.1-0.9-2.3-0.3-1.2-0.6-2.5c-0.1-1.1-0.1-2.3-0.2-3.5 0.1-1.2 0.1-2.3 0.2-3.6 0.4-1.2 0.7-2.3 1-3.5 0.5-1.1 1-2.2 1.4-3.2q0.8-1.3 1.6-2.6 0.9-1.1 1.8-2.3 1.1-0.9 2.3-2.1c0.8-0.5 1.6-1.1 2.5-1.7 1.2-0.6 1.2-0.6 2.5-1.1q1.1-0.4 2.3-0.8 1.2-0.2 2.4-0.4c1.6 0 3.1 0 4.8 0 1.2 0.2 2.5 0.5 3.8 0.9 1.4 0.5 1.4 0.5 2.8 1.1 1 0.5 2 0.9 3 1.3q1 0.5 2 1 1.1 0.7 2.3 1.4c1.2 0.8 1.2 0.8 2.5 1.6 0.8 0.7 1.7 1.2 2.6 1.9 1 0.6 1.9 1.3 2.8 1.9q1.3 0.9 2.6 1.8c1.2 0.7 2.3 1.4 3.4 2.2q1.4 0.8 2.9 1.6c1.4 0.8 1.4 0.8 2.9 1.6 0.9 0.5 1.9 0.8 2.8 1.3q1.3 0.5 2.7 1 1.2 0.5 2.6 0.9c1.2 0.4 1.2 0.4 2.5 0.8 1.4 0.3 1.4 0.3 2.8 0.6q1.6 0.3 3.3 0.6c1.4 0.1 2.9 0.2 4.3 0.4 1 0 2.1 0 3.1 0.1q1.6 0 3.3 0c1.5 0 1.5 0 3.2 0q1.4-0.1 2.9-0.1 1.3-0.2 2.6-0.4 1-0.3 2.2-0.5 1.1-0.3 2.2-0.5 1.3-0.5 2.6-1c1.3-0.5 2.5-1.2 3.9-1.8 1.2-0.7 2.5-1.3 3.7-2q1.3-1 2.5-1.9 0.9-0.9 1.9-2 0.7-1.2 1.7-2.5 0.5-1.1 1.2-2.3 0.2-0.9 0.4-1.9 0.1-1.4 0.1-3c0-1.1 0-2.1-0.1-3.2-0.4-1.1-0.9-2.2-1.4-3.4q-0.7-1-1.4-2c-1-1.2-1-1.2-2-2.3-1.2-1.1-1.2-1.1-2.5-2.2q-1.3-1-2.7-2.1c-1.2-0.7-2.3-1.4-3.5-2.1-1-0.6-2.1-1.1-3.3-1.8-1.2-0.7-2.5-1.5-3.8-2.3q-1-0.5-2.2-1-1.1-0.4-2.2-0.9-1.1-0.5-2.3-0.9-1.2-0.6-2.4-1-1.2-0.6-2.3-1.1c-1-0.4-2-0.9-3-1.3-1-0.5-1-0.5-2.1-0.9q-1.2-0.6-2.4-1c-1.3-0.5-1.3-0.5-2.5-1q-1.3-0.5-2.6-1.1-1.3-0.5-2.5-1-1.3-0.5-2.6-1.1-1.1-0.5-2.5-1-1.2-0.6-2.5-1.1-1.2-0.6-2.5-1.1-1.2-0.6-2.3-1.1c-1.4-0.7-2.8-1.4-4.3-2.1q-1.3-0.7-2.7-1.3-1-0.6-2-1.1c-1.2-0.7-1.2-0.7-2.3-1.3q-1-0.5-2-1.1c-1-0.5-2-1-3-1.6-1-0.6-1.9-1.2-2.8-1.8-1-0.6-1-0.6-2-1.2q-1-0.8-2-1.5-1.1-0.7-2.2-1.5-0.9-0.7-2-1.5c-1.1-1-2.1-1.9-3.3-2.8-1.4-1.5-1.4-1.5-2.9-3-0.9-1-1.8-2-2.8-3-0.8-1.1-1.6-2.1-2.5-3.2-0.6-1-1.3-2-2-3.1-0.5-1.2-1.2-2.4-1.8-3.6q-0.5-1.3-1-2.6-0.6-1.3-1.1-2.7-0.5-1.4-1-2.8c-0.3-1.2-0.3-1.2-0.7-2.5-0.2-1-0.4-2-0.5-3q0-1.4 0-2.7c-0.1-1.2-0.1-2.3-0.1-3.4 0-1.9 0-1.9 0.1-3.8q0.1-2.1 0.3-4.2c0.2-1.5 0.4-2.9 0.6-4.4 0.5-1.6 0.9-3.1 1.2-4.6 0.5-1.1 0.5-1.1 0.9-2.3q0.3-1.1 0.8-2.2 0.9-2.1 1.8-4.3c0.7-1.3 1.4-2.6 2-3.9 0.8-1.1 1.5-2.3 2.3-3.5 0.8-1 1.7-2.1 2.5-3.2 0.9-1.1 1.8-2.1 2.8-3.2q1.5-1.5 3-3c1-1 1.9-1.9 3-2.8 1-0.8 2.1-1.7 3.2-2.5 1.2-0.8 2.5-1.6 3.7-2.5 1.3-0.8 2.6-1.5 4-2.3 2-1 2-1 3.9-2.1 1.2-0.5 2.5-1.1 3.7-1.7 1.2-0.5 2.3-1 3.4-1.4q1.4-0.6 2.9-1c1.7-0.3 1.7-0.3 3.4-0.5 0.1-1.7 0.1-1.7 0.2-3.5-0.1-1.5-0.1-2.9-0.2-4.5-0.1-1.5-0.2-3-0.2-4.4q0.1-2.2 0.1-4.4c0.5-1.3 0.9-2.6 1.4-4 0.5-1 1-2.1 1.5-3.2 0.8-1.1 0.8-1.1 1.6-2.3q0.9-1 1.8-2c0.7-0.7 1.4-1.5 2.2-2.3q1.2-1 2.6-2 1.4-0.9 2.8-1.7c1-0.4 2-0.8 2.9-1.2q1.2-0.3 2.4-0.7c1.2-0.1 1.2-0.1 2.5-0.3z"/></svg>