<svg version="1.2" xmlns="http://www.w3.org/2000/svg" viewBox="0 0 2841 1875" width="2841" height="1875"><defs><filter x="-50%" y="-50%" width="200%" height="200%" id="f1" ><feDropShadow dx="20.683199964212402" dy="17.355265461536565" stdDeviation="16.666666666666668" flood-color="#000000" flood-opacity=".6"/></filter><filter x="-50%" y="-50%" width="200%" height="200%" id="f2" ><feDropShadow dx="20.683199964212402" dy="17.355265461536565" stdDeviation="16.666666666666668" flood-color="#000000" flood-opacity=".6"/></filter></defs><style>.a{filter:url(#f1);fill:#009fff}.b{filter:url(#f2);fill:#009fff}</style><path class="a" d="m934.1 93.8c27.7 3.5 54.1 13.5 81 20.7 45 12 45 12 90.9 24.3 43.2 11.6 43.2 11.6 87.3 23.4 30 8 60 16 90.9 24.3 24.4 6.5 48.7 13.1 73.8 19.8 30 8 60 16 90.9 24.3 36.5 9.8 36.5 9.8 73.8 19.8 30 8 60 16 90.9 24.3 28.8 7.7 57.6 15.4 87.3 23.4 30 8 60 16 90.9 24.3 36.5 9.8 36.5 9.8 73.8 19.8 30 8 60 16 90.9 24.3 28.8 7.7 57.6 15.4 87.3 23.4 25.5 6.8 51.1 13.7 77.4 20.7 28.8 7.7 57.6 15.4 87.3 23.4 17.8 4.8 35.6 9.5 54 14.4q0.9 0.4 1.8 0.9c-5.9 53.3-30.8 120.8-45 173.7-8.6 32.4-17.2 64.7-26.1 98.1-6.5 24.4-13.1 48.7-19.8 73.8-8.6 32.4-17.2 64.7-26.1 98.1-25 93.2-25 93.2-26.1 95.4-54.5-13.6-108.7-28.6-162.9-43.2-38.3-10.2-38.3-10.2-77.4-20.7-24.4-6.5-48.7-13.1-73.8-19.8-30-8-60-16-90.9-24.3-36.5-9.8-36.5-9.8-73.8-19.8-30-8-60-16-90.9-24.3-28.8-7.7-57.6-15.4-87.3-23.4-30-8-60-16-90.9-24.3-43.2-11.7-43.2-11.7-45.9-12.6q-1.8 7.5-3.6 15.3c-35.9 133.9-35.9 133.9-36.9 135.9-47.2-5.9-109.5-28.1-155.7-40.5q-89.1-23.9-178.2-47.7c-28.8-7.7-57.6-15.4-87.3-23.4-30-8-60-16-90.9-24.3-23.4-6.3-23.4-6.3-25.2-7.2 10.5-52.3 27.6-105.9 41.4-157.5 5.9-22.3 11.9-44.6 18-67.5 72.9-272.7 72.9-272.7 93.6-350.1 8-30 16-60 24.3-90.9 6.3-23.4 6.3-23.4 7.2-24.3z"/><path class="b" d="m719.9 887.6c53.2 6.7 129.1 33.5 181.8 47.7 25.5 6.8 51.1 13.7 77.4 20.7 27.6 7.4 55.2 14.8 83.7 22.5 43.2 11.6 43.2 11.6 87.3 23.4q117.5 31.5 234.9 63c63.9 17.1 63.9 17.1 127.8 34.2 0.6-3 1.2-5.9 1.8-9 37.3-139.3 37.3-139.3 38.7-142.2 62.6 11.4 130.2 33.9 191.7 50.4 32.4 8.6 64.7 17.2 98.1 26.1 36.5 9.8 36.5 9.8 73.8 19.8 32.4 8.6 64.7 17.2 98.1 26.1 25.2 6.8 50.5 13.7 76.5 20.7-6.3 50.7-30.7 119.1-44.1 169.2-8 30-16 60-24.3 90.9-97.2 363.6-97.2 363.6-115.2 430.2-28.3-2.8-55.3-13.3-82.8-20.7-38.3-10.2-38.3-10.2-77.4-20.7-24.4-6.5-48.7-13.1-73.8-19.8-30-8-60-16-90.9-24.3-28.8-7.7-57.6-15.4-87.3-23.4-30-8-60-16-90.9-24.3-36.5-9.8-36.5-9.8-73.8-19.8-30-8-60-16-90.9-24.3-36.5-9.8-36.5-9.8-73.8-19.8-30-8-60-16-90.9-24.3-28.8-7.7-57.6-15.4-87.3-23.4-30-8-60-16-90.9-24.3-24.4-6.5-48.7-13.1-73.8-19.8-30-8-60-16-90.9-24.3-28.8-7.7-57.6-15.4-87.3-23.4-22.3-5.9-44.5-11.9-67.5-18-2.8-13.8 41.2-162.4 42.3-166.5 7.1-26.7 14.3-53.5 21.6-81 8-30 16-60 24.3-90.9 7.1-26.7 14.3-53.5 21.6-81 8-30 16-60 24.3-90.9 2.4-8.9 4.8-17.8 7.2-27q0.4-0.9 0.9-1.8z"/></svg>