<svg version="1.2" xmlns="http://www.w3.org/2000/svg" viewBox="0 0 512 331" width="512" height="331"><defs><filter x="-50%" y="-50%" width="200%" height="200%" id="f1" ><feDropShadow dx="10.993299097210054" dy="0.38389446372751257" stdDeviation="2.5" flood-color="#000000" flood-opacity=".6"/></filter><filter x="-50%" y="-50%" width="200%" height="200%" id="f2" ><feDropShadow dx="10.993299097210054" dy="0.38389446372751257" stdDeviation="2.5" flood-color="#000000" flood-opacity=".6"/></filter></defs><style>.a{filter:url(#f1);fill:#e13734}.b{filter:url(#f2);fill:#e13734}.c{fill:#e13a35}.d{fill:#e03734}.e{fill:#e13834}</style><path fill-rule="evenodd" class="a" d="m281.6 79.6q1.3-0.1 2.6-0.1c3.7 0.1 6.1 0.1 9.4 1.9 1.4 1.6 1.4 1.6 1.4 3.6 3.7-1.6 3.7-1.6 7-4 3-0.1 3-0.1 6 0q0.5 0.5 1 1 2.8 0.3 5.6 0.6c1.5 0.1 1.5 0.1 3 0.2q1.2 0.1 2.4 0.2 0.5-1 1-2 7.3 0 15 0 0.5 1.5 1 3c6.3 0 12.5 0 19 0q0-1 0-2c3 0 5.9 0 9 0q0 1 0 2c5.3 0.3 10.6 0.7 16 1q0-1 0-2 2.2-0.3 4.4-0.6 1.3-0.1 2.5-0.3c1.1 0 1.1 0 2.1-0.1q0.5 0.5 1 1 4.6-0.2 9.2-0.4 11.7-0.7 23.3-0.6 1.3 0 2.5 0 6.3 0 12.5 0.1c8.1 0.1 15.6-0.2 23.6-1.6 4.4-0.8 8.8-0.9 13.3-0.9q1.3 0 2.6 0c5.7-0.1 8.3 1.1 13 4.4 2.7 0.4 5.1 0.7 7.9 0.7 1 0.1 1 0.1 2.1 0.1q2.5 0.1 5 0.2 0 1 0 2c-1.2 0.1-1.2 0.1-2.3 0.3q-1.5 0.2-3.1 0.4-1.5 0.3-3 0.5c-2.7 0.5-2.7 0.5-3.7 2.8q-0.4 1-0.9 2c-2.1 0.6-2.1 0.6-4 1 1.8 0.1 1.8 0.1 3.6 0.1q2.4 0.1 4.7 0.2c1.2 0 1.2 0 2.4 0.1q1.1 0 2.3 0.1c1 0 1 0 2.1 0.1 2.4 0.5 3.4 1.5 4.9 3.4q0 1 0 2c-3.3 1.6-6.9 1.5-10.5 1.7-2.5 0.2-2.5 0.2-4.5 1.3q-2 0.1-4.1 0c-1.3 0-1.3 0-2.6-0.1-1.3 0-1.3 0-2.7 0-30.6-1.2-30.6-1.2-59.6 7.1q-1.3 0.6-2.6 1.2c-5 2.3-8.8 4.6-12.5 8.7-2.9 3-5.6 5.8-8.8 8.4-16.6 14.4-30.6 38-33.4 59.9-0.3 6.4 1.5 11.6 5.5 16.6 3.3 2.6 6 4.4 9.8 6.2 13.4-1.4 27.9-13.5 36.2-23.6q0.9-1.2 1.8-2.4 1-1.3 2.1-2.7c6.2-9 8.3-18.3 10.4-28.9 0.7-3.5 1.6-6.9 2.5-10.4q1 0 2 0 0.5-2.5 1-5 1 0 2 0c1.3 16.9 1.3 16.9 0 24 2.9-8.5 4.9-16.8 6.4-25.7 0.6-3.3 0.6-3.3 1.6-6.3 1.5-0.5 1.5-0.5 3-1 0-3.6 0-7.3 0-11q1.5 0 3 0c6.9 14.6 1.7 31.4-3.2 45.9-9.9 27.2-21.9 49.9-48.7 63.3-10.4 4.9-26 10.6-37.3 7.1-9.8-4-16.5-9.6-20.8-19.3-6.9-19.9-2.7-41.5 6-60 4.1-8.1 9.1-15.1 15-22q0.9-1.1 1.9-2.3c8.8-10.4 21.7-21.5 34.1-27.7q-1.2 0-2.5 0c-30.5 0.2-30.5 0.2-42.5-1q-0.4 0.9-0.9 1.7-1.6 3.2-3.3 6.3c-5.3 9.7-9.9 19.4-14 29.6-4.2 10.8-8.8 21.3-13.7 31.8-0.5 1.1-0.5 1.1-1 2.3q-3.1 6.6-6.1 13.2-1.5 3.1-2.9 6.2-4.1 8.9-8.2 17.7-0.7 1.5-1.4 3.1-1.6 3.3-3.2 6.6c-0.9 1.7-0.9 1.7-1.7 3.5-0.8 1.5-0.8 1.5-1.6 3.1-1.5 4.4-0.8 6.7 1 10.9-4-1.3-4.8-3.5-7-7 0.3 2.3 0.7 4.6 1 7-4 0-5.6-0.1-9-2-2.9-4.4-5-9-7-13.8-1.2-2.6-2.5-5.1-3.8-7.7-7.1-13.7-13.5-28.1-19.2-42.5q-0.7 1.5-1.5 3-2.7 5.5-5.4 10.9-1.4 2.8-2.8 5.6c-4.3 8.5-9.6 14.9-16.3 21.5q-1 1-2 2c-12.2 11.6-29.5 18-46 20q-1.9 0.2-3.9 0.5c-7.9-0.3-15.3-5.2-20.6-10.7-9.9-12.3-9.5-27.8-8.5-42.8 2.6-19.8 12.9-37.3 26-52q1.2-1.3 2.3-2.6c15.6-16.5 36.6-30.5 57.7-38.4 1.7-0.7 1.7-0.7 3.5-1.3 14.2-5.2 28.9-8 44.1-8.1zm-9.6 10.4q0 0.5 0 1c8.9 0 17.8 0 27 0q0-1.5 0-3c-8.7-2.9-18.6-1.3-27 2zm11.8 3.1q-1.1 0.2-2.1 0.3-3.4 0.6-6.8 1.1-2.3 0.4-4.6 0.7-5.7 0.9-11.3 1.8 2 0.5 4 1 0 1 0 2c-0.8 0.1-0.8 0.1-1.7 0.3-7.6 1.4-14.7 3.6-22 6.1q-1.8 0.6-3.6 1.1c-8.5 2.9-15.1 5.2-20.7 12.5q-1.8 1.6-3.6 3.2c-18.3 15.7-35.8 38.5-38.8 63.3-0.3 6.6 0.3 12.2 4.4 17.5 3.4 3.6 7.1 6.8 12 8 10.6-1.3 20.3-9.1 28-16q1.1-1 2.3-2c14.3-13.3 20.6-30 21.7-49.3q0-0.8 0-1.7 1.5 0 3 0 0-2.5 0-5c1.5 0.5 1.5 0.5 3 1q0-1.5 0-3 1.5 0 3 0c0.5 2 0.5 2 1 4q1 0 2 0c0.2-1 0.2-1 0.4-1.9q0.2-1.3 0.5-2.5 0.2-1.3 0.5-2.5 0.3-1.1 0.6-2.1 1-0.5 2-1 0.5 1 1 2 0.3-2.1 0.6-4.3c0.1-1.1 0.1-1.1 0.3-2.3 0.1-2.4-0.2-4.2-0.9-6.4 1.5 0.5 1.5 0.5 3 1 3.3 8.1 2.3 18 0.1 26.3-0.2 5.6 2.2 9.3 4.8 14.1q1.6 3 3.1 5.9 0.8 1.5 1.6 3 2.3 4.5 4.6 9.1c4.2 8.8 9 17.2 13.8 25.6 3-2.6 4.2-5.3 5.7-8.9q0.8-1.8 1.6-3.7 0.4-1 0.8-2 2.2-5.1 4.4-10.2 0.4-1.1 0.9-2.1c4.6-10.8 9.6-21.5 14.6-32.1q1-2.2 2-4.3 3.3-7 6.6-14 0.5-1.1 1-2.2 1.5-3.2 3-6.4 0.5-0.9 0.9-1.9c1.4-2.9 2.7-5.7 4.2-8.5 1.5-2.6 1.5-2.6 1.3-5.7q-10.3 0-21 0 0-1 0-2c-11.4-1.7-11.4-1.7-23-2q0.5-3 1-6c-3.1 0-6.1 0.6-9.2 1.1zm97.2 30.9q-3 3-6 6 0.5 1 1 2 3-3 6-6-0.5-1-1-2zm-187.3 10c-3.8 3.9-7.7 7.9-9.7 13q0.5 1.5 1 3 0.9-1.2 1.8-2.3 6.6-8.9 13.2-17.7c-3.1 0-4.2 1.9-6.3 4zm192.9 2.2q-1.2 1.1-2.4 2.3c-2.1 2.4-3.8 4.6-5.2 7.5q0.5 1.5 1 3 2.4-3.1 4.9-6.3 0.7-0.8 1.4-1.7c2.2-2.9 4.2-5.6 5.7-9-2.1 0-4 2.8-5.4 4.2zm-139.6 2.8q0 2.5 0 5c1 0.5 1 0.5 2 1q-0.5-3-1-6-0.5 0-1 0zm-4 7q-0.1 3 0 6 0.5 0 1 0c0.3-2.3 0.7-4.6 1-7-1.1-0.1-1.1-0.1-2 1zm124 0c-1.5 2-1.5 2-3 4q0.5 1 1 2 1.5-2 3-4-0.5-1-1-2zm-120 5c-0.3 4-0.7 7.9-1 12 2.8-2.8 2.7-5.1 3-9q-1-1.5-2-3zm103 21c-3.4 10-3 18.7-2 29q0.5 0 1 0c2.1-9.4 2.2-19.4 2-29q-0.5 0-1 0zm-195 1c-3.3 10-2.7 21.7-1 32q0.5 0 1 0 0.5-6.4 1-12.7 0.1-2.2 0.3-4.3 0.2-3.1 0.5-6.2 0.1-1.9 0.2-3.8c0.3-3.1 0.3-3.1-2-5zm6 16c-0.7 5.5-1.3 10.5 0 16q0.5 0 1 0c0-5.3 0-10.6 0-16q-0.5 0-1 0zm194 2c0 4 0 7.9 0 12q0.5 0 1 0 0.3-1.8 0.6-3.8 0.2-1 0.4-2.1c0.2-2.5 0.2-2.5-2-6.1zm-186 23q1.5 2 3 4 1.5-0.5 3-1c-2.7-2.3-2.7-2.3-6-3zm196 1q0.5 1.5 1 3 1.5-0.5 3-1-2-1-4-2zm-182 6q0 0.5 0 1c2.6 0 5.3 0 8 0q0-0.5 0-1c-2.6 0-5.3 0-8 0zm195 0q0 0.5 0 1c2.3 0 4.6 0 7 0q0-0.5 0-1c-2.3 0-4.6 0-7 0zm-120-131c4 1 4 1 4 1zm-2 44c1 2 1 2 1 2zm113 9c0 3 0 3 0 3zm-196 2c0 3 0 3 0 3zm83 1c1 2 1 2 1 2zm194 1c1 3 1 3 1 3zm-279 1c0 3 0 3 0 3zm207 1c0 3 0 3 0 3zm59 1c1 3 1 3 1 3zm12 0c1 3 1 3 1 3zm-280 1c0 3 0 3 0 3zm13 0c1 2 1 2 1 2zm181 1c0 3 0 3 0 3zm13 0c0 3 0 3 0 3zm-195 1c0 3 0 3 0 3zm-14 1c1 2 1 2 1 2zm281 0c1 3 1 3 1 3zm-74 1c1 2 1 2 1 2zm-195 1c1 2 1 2 1 2zm81 1c1 2 1 2 1 2zm113 0c1 2 1 2 1 2zm74 1c1 2 1 2 1 2zm-75 1c1 2 1 2 1 2zm-127 4c1 3 1 3 1 3zm194 2c1 2 1 2 1 2zm-87 1c1 2 1 2 1 2zm-195 2c1 2 1 2 1 2zm194 1c1 2 1 2 1 2zm-195 1c1 3 1 3 1 3zm200 17c1 3 1 3 1 3zm-7 16c1 4 1 4 1 4zm7 3c1 2 1 2 1 2z"/><path fill-rule="evenodd" class="b" d="m76 51q2 0.5 4 1-0.5 1.5-1 3 2-0.7 3.9-1.4c1.1-0.4 1.1-0.4 2.3-0.8 1.8-0.7 1.8-0.7 2.8-1.8 4.7-0.3 9.5-0.3 14.3-0.4q2.4 0 4.7 0c15.9-0.4 27.9 2.9 41 12.4q1 0.7 2.1 1.4c6.3 4.6 9.1 11.7 10.3 19.3 0.8 17-7.4 30.1-18 42.4-2.5 2.9-2.5 2.9-4.5 6.3q-0.9 1.3-1.9 2.6-1.5 0-3 0-0.5-1-1-2-1.3 1.2-2.6 2.4c-20 17-46.3 30.8-72.4 34.6 3.9 5 8.1 9 13 13q0.8 0.6 1.6 1.3c16.1 13.4 33.6 24.5 51.2 35.7q3.3 2.1 6.6 4.2c8 5.2 16.2 10.2 24.5 15 0.9 0.6 0.9 0.6 1.8 1.1q14.5 8.5 29.4 16.4c4.5 2.5 9.1 4.9 13.6 7.5q1.2 0.8 2.5 1.5c0.9 0.6 0.9 0.6 1.8 1.3q0 1 0 2c-7.6-0.8-7.6-0.8-10.1-2.2-2.1-1.1-2.1-1.1-5.1 0.1q-1.4 0.5-2.8 1.1 0 1 0 2 1.5 1 3 2-0.5 1.5-1 3c-2.1 0.7-2.1 0.7-4 1q0 1.5 0 3c-4.6-0.6-8.1-2.5-12.1-4.8q-1-0.6-2.1-1.2c-6.5-3.8-12.9-7.7-19.4-11.6q-7.5-4.5-15.2-8.7c-14.6-8-28.3-17.6-41.9-27.1q-5.4-3.7-11.1-7.2c-8.7-5.5-16.8-12-24.9-18.5q-3.3-2.7-6.7-5.3c-1-0.7-1-0.7-1.9-1.5-1.8-1.3-1.8-1.3-4.7-2.1-1.7 5.1-3.4 10.1-4.8 15.3-0.5 1.6-0.5 1.6-1 3.3q-1 3.5-2 6.9c-2 6.9-4.4 12.1-9.2 17.5q-1.2 1.4-2.4 2.7-1.1 1.2-2.2 2.3c-1.1 1.1-1.1 1.1-2.3 2.3-2.1 1.7-2.1 1.7-6.1 1.7q-0.2-1.4-0.4-2.9c-0.3-3-0.3-3-1.6-4.1-1.1 0.7-1.1 0.7-2.3 1.5-2.7 1.5-2.7 1.5-5.7 1.5 1.3-6.4 3-12.5 5.2-18.7q0.4-1.4 0.9-2.8 1.5-4.5 3.1-9 0.5-1.5 1.1-3.1c10.3-30.3 21.1-60.3 33.8-89.6 5.1-11.8 9.8-23.6 13.9-35.8-7.8 4.1-7.8 4.1-15.1 8.9-2.9 2.1-2.9 2.1-4.9 2.1q0-1.5 0-3c-5.8 3.9-11.3 7.9-16.4 12.7-1.6 1.3-1.6 1.3-3.6 1.3 0.6-3.9 2.4-5.9 5.1-8.8 1.1-1.1 1.1-1.1 2.2-2.4q0.8-0.9 1.7-1.8c-2.2 1.1-3.8 1.8-5.6 3.6-1.4 1.4-1.4 1.4-4.4 1.4 0.8-6.8 8.6-12.3 13.7-16.4 4-3 8.1-5.8 12.3-8.6q1.3-0.9 2.7-1.8c5.3-3.4 10.6-5.4 16.6-7.3 4.3-1.5 7.6-3.1 10.1-7.2q0.3-0.8 0.6-1.7zm12.9 26c-3.8 6-6.4 12.2-8.7 18.9-1.9 5.9-4.2 11.5-7 17.1-3.5 7.3-6.7 14.8-9.7 22.4-0.7 1.7-0.7 1.7-1.4 3.4-2.2 5-2.2 5-3.1 10.2q2.9-0.6 5.9-1.3 1.6-0.3 3.3-0.7c2.9-0.7 2.9-0.7 3.7-2.9 1.5-2.8 2.8-3.1 5.7-4.2 1.4-0.5 1.4-0.5 2.8-1.1q1.5-0.5 3-1.1c15.9-6.3 28.2-13.8 39.2-27.2 1.4-1.5 1.4-1.5 3.4-2.5q0.5 1.5 1 3c6.1-6.7 8.3-10.9 8-20q-1 0-2 0 0.8-0.9 1.6-1.8c1.6-2 1.6-2 1.2-4.2-1.1-2.7-2.1-3-4.8-4.1-4.8-2-9.6-3.2-14.7-4.2q-1.3-0.2-2.6-0.5c-12.8-2.6-12.8-2.6-24.8 0.8zm-20.6 73.4q-1.5 0.5-3 0.9c-1.1 0.4-1.1 0.4-2.3 0.7 3.5 1.3 5.7 0.7 9.2-0.4 1.4-0.5 1.4-0.5 2.8-0.9q1-0.3 2-0.7c-3.6-1.2-5.1-0.6-8.7 0.4zm103.7 112.6q0.5 1 1 2 1-0.5 2-1-1.5-0.5-3-1zm-111-105c4 1 4 1 4 1z"/><path class="c" d="m203 269q2.5 0 5 0-0.5 2.5-1 5-1.5 0-3 0-0.5-2.5-1-5z"/><path class="d" d="m368 82c2.3 0 4.6 0 7 0q0 1 0 2c-2.3 0-4.6 0-7 0q0-1 0-2z"/><path class="e" d="m347 82q1.5 0 3 0 0 1 0 2-1.5 0-3 0 0-1 0-2z"/></svg>